<svg width="32" height="32" viewBox="0 0 32 32" fill="none" xmlns="http://www.w3.org/2000/svg">
<path fill-rule="evenodd" clip-rule="evenodd" d="M15.1815 4.28086C15.663 3.90638 16.3372 3.90638 16.8187 4.28086L28.8187 13.6142C29.3999 14.0663 29.5046 14.904 29.0525 15.4853C28.6004 16.0665 27.7627 16.1712 27.1815 15.7191L26.6667 15.3187V26.6667C26.6667 28.1394 25.4728 29.3333 24 29.3333H8.00001C6.52725 29.3333 5.33334 28.1394 5.33334 26.6667V15.3188L4.81865 15.7191C4.23739 16.1712 3.39969 16.0665 2.9476 15.4853C2.4955 14.904 2.60022 14.0663 3.18148 13.6142L15.1815 4.28086ZM14.6667 20C13.9303 20 13.3333 20.597 13.3333 21.3333V26.6667H18.6667V21.3333C18.6667 20.597 18.0697 20 17.3333 20H14.6667Z" fill="#7530FF"/>
</svg>
