<svg width="40" height="39" viewBox="0 0 40 39" fill="none" xmlns="http://www.w3.org/2000/svg">
<rect x="0.104736" width="39.7429" height="39" rx="19.5" fill="#7530FF"/>
<path fill-rule="evenodd" clip-rule="evenodd" d="M18.8552 12.6C16.1538 12.6 13.9638 14.749 13.9638 17.4C13.9638 20.051 16.1538 22.2 18.8552 22.2C21.5567 22.2 23.7467 20.051 23.7467 17.4C23.7467 14.749 21.5567 12.6 18.8552 12.6ZM12.3333 17.4C12.3333 13.8654 15.2533 11 18.8552 11C22.4572 11 25.3771 13.8654 25.3771 17.4C25.3771 20.9346 22.4572 23.8 18.8552 23.8C15.2533 23.8 12.3333 20.9346 12.3333 17.4Z" fill="white"/>
<path fill-rule="evenodd" clip-rule="evenodd" d="M22.355 20.8343C22.6733 20.5219 23.1895 20.5219 23.5079 20.8343L28.3993 25.6343C28.7177 25.9467 28.7177 26.4533 28.3993 26.7657C28.0809 27.0781 27.5648 27.0781 27.2464 26.7657L22.355 21.9657C22.0366 21.6533 22.0366 21.1467 22.355 20.8343Z" fill="white"/>
</svg>
