<svg width="200" height="290" viewBox="0 0 200 290" fill="none" xmlns="http://www.w3.org/2000/svg">
<g clip-path="url(#clip0)">
<path d="M20.0316 49.2709C25.4381 49.2709 29.821 40.1566 29.821 28.9136C29.821 17.6705 25.4381 8.55627 20.0316 8.55627C14.625 8.55627 10.2421 17.6705 10.2421 28.9136C10.2421 40.1566 14.625 49.2709 20.0316 49.2709Z" fill="#6C63FF"/>
<path opacity="0.1" d="M18.8355 70.3544C22.9459 89.6607 17.7027 111.892 11.5308 128.633C9.46514 134.246 7.18466 140.131 6.89829 147.173C6.55295 155.786 9.35775 163.703 12.6848 168.879C18.7534 178.311 27.0415 181.227 34.2641 176.467C40.5054 172.355 45.7528 163.068 52.0488 159.324C62.5774 153.053 73.7376 163.449 82.7543 176.401C89.1367 185.558 95.9718 196.715 103.666 194.753C109.08 193.374 113.674 185.47 116.793 176.165C118.299 171.672 119.608 166.637 121.8 163.606C123.104 161.802 124.635 160.848 126.166 160.165C140.145 153.951 154.982 169.115 168.777 161.316C178.094 156.062 185.523 140.736 190.143 123.102C194.763 105.468 196.919 85.5577 198.716 65.831C199.992 51.8187 201.051 36.681 198.118 23.794C195.014 10.1495 187.829 1.87782 180.609 0.3277C173.388 -1.22241 166.147 3.05573 159.495 9.08979C151.183 16.6477 143.036 27.227 133.965 27.262C127.787 27.2883 121.895 22.3577 115.989 18.5963C106.113 12.3126 95.8433 9.1905 85.6096 6.30921C75.8117 3.55054 65.917 0.984529 56.0602 2.61346C49.0861 3.7651 42.9269 9.30873 36.1592 11.8747C31.7477 13.5475 27.3152 12.3126 22.9859 15.1151C17.6542 18.5831 12.171 26.6183 11.8762 39.2732C11.5982 51.3195 16.6561 60.1122 18.8355 70.3544Z" fill="#6C63FF"/>
<path d="M126.742 87.5464C125.843 82.6727 123.525 71.2176 121.998 73.4903C120.069 76.3628 123.927 89.0527 123.927 89.0527C124.037 91.3823 121.868 96.2297 120.705 98.6468C120.705 98.4541 120.705 98.3446 120.705 98.3446C120.694 98.4366 120.677 98.5249 120.655 98.6074L120.558 98.4979C120.532 98.691 120.485 98.8693 120.421 99.019C120.421 98.6906 120.411 98.4979 120.411 98.4979C120.187 100.464 116.292 102.956 116.292 102.956C116.292 102.956 116.187 102.956 116.005 102.956C114.923 102.956 112.106 102.448 110.8 98.1038C110.125 95.7506 109.261 93.655 108.246 91.9077C107.898 91.3413 107.476 91.0084 107.035 90.9531C103.428 90.4715 100.507 86.675 99.9242 85.8649L99.8168 85.7117L99.7936 85.8518C99.6568 85.4445 99.5241 85.011 99.3999 84.5644L99.3367 84.3235C100.21 83.4121 100.944 82.0156 101.459 80.2889C101.974 78.5622 102.249 76.5728 102.253 74.5412C102.253 74.4667 102.253 74.3879 102.253 74.3135C102.57 73.1729 102.737 71.8785 102.737 70.5608V69.2472L103.561 67.7233C103.938 67.0271 104.327 66.2914 104.519 65.3325C104.596 64.9444 104.63 64.5256 104.62 64.1064C104.638 63.7472 104.612 63.3842 104.545 63.0517C104.477 62.7192 104.369 62.4281 104.232 62.2059C103.601 61.2995 102.548 62.206 102.091 60.9449C101.88 60.3756 101.918 59.6005 101.815 58.9306C101.605 57.5688 100.846 56.8331 100.145 56.8112C99.4441 56.7893 98.7724 57.3192 98.0985 57.7176C96.6829 58.5534 95.2054 58.8413 93.7397 58.5671C93.3433 58.4204 92.9363 58.4502 92.5458 58.6547C92.3073 58.8597 92.0953 59.1786 91.927 59.5856C91.7587 59.9926 91.6389 60.4762 91.5772 60.9974C91.5251 61.389 91.494 61.7914 91.4845 62.1972C90.8971 63.5751 90.572 65.352 90.5706 67.1935V70.5608C90.5719 72.3585 90.8818 74.0961 91.4445 75.4608C91.5109 77.0452 91.7426 78.5805 92.1233 79.9598C92.5041 81.3392 93.0248 82.5294 93.6492 83.4478C93.6492 83.5354 93.6492 83.6244 93.6492 83.7149L93.6766 83.7499C93.6425 84.7938 93.565 85.8297 93.4449 86.8458V86.6224C93.4449 86.6224 90.4969 89.8847 87.3384 89.9635H86.9909C86.3679 89.9199 85.762 90.3924 85.3064 91.2772C84.3714 93.1075 82.7332 96.002 81.7267 96.002C81.5161 96.002 76.2013 98.1607 75.3211 98.5198L73.6766 95.17L73.626 95.367L73.5292 95.17C73.3493 95.1988 73.1706 95.253 72.9943 95.332C72.152 93.2564 70.4675 88.4309 70.0779 81.9546C70.0779 81.9546 73.7145 73.3414 72.3773 65.3149C71.236 58.4752 68.0922 73.1356 67.1994 77.5538C67.0432 78.3248 67.0238 79.1861 67.1447 79.9841L70.099 99.7853C69.8177 101.32 69.737 102.982 69.8652 104.602H69.8315L71.9836 110.343C71.9836 110.343 73.6029 111.779 76.136 111.753C77.9926 111.759 79.8325 111.025 81.5561 109.59H82.0552L81.9604 109.664H84.5231L86.1529 119.915C86.0981 120.848 85.3106 133.866 84.6789 136.778C84.4914 137.751 84.4067 138.796 84.4304 139.843C84.4636 141.855 84.6214 143.849 84.9 145.776L86.3276 145.667L86.2729 145.899C85.0642 151.053 83.0448 160.235 81.8509 168.818L79.7726 177.576L81.3308 216.854H81.394L81.514 216.893C81.6825 216.946 81.9351 217.025 82.2678 217.112L82.1457 217.55L78.7113 229.373C78.7113 229.373 76.2624 239.799 81.6803 237.833C81.6803 237.833 83.6829 236.624 84.4999 229.513L88.0627 222.564C88.0627 222.564 88.2291 217.949 87.2205 216.105C87.1573 213.973 86.9973 207.746 87.2436 206.248C87.5405 204.436 85.9802 183.588 85.9802 183.588C85.9802 183.588 91.6193 159.263 95.0347 158.659C95.2851 158.622 95.5365 158.691 95.7738 158.86C98.5807 160.761 101.981 174.874 102.982 179.266L103.028 179.467V179.507L103.066 179.677V179.726L103.1 179.875V179.914L103.129 180.05V180.08L103.154 180.19V180.234L103.173 180.317V180.352L103.186 180.413V180.448V180.488L103.196 180.54L103.641 207.886L103.685 207.934H103.706L103.668 208.499L103.474 211.323C103.474 211.323 105.923 222.052 105.774 223.409C105.624 224.767 107.406 230.209 109.928 228.699C112.451 227.188 110.95 218.671 110.95 218.671L108.52 208.258L108.412 207.794C108.654 207.485 108.883 207.132 109.095 206.739C109.095 206.739 108.353 195.56 109.095 193.142C109.836 190.725 110.059 179.695 110.059 179.695C110.059 179.695 109.539 172.141 108.648 168.818L104.917 141.122C106.035 143.285 106.905 144.13 107.631 144.073H107.751C108.07 144.086 108.386 143.922 108.665 143.6C108.815 143.424 108.956 143.217 109.086 142.983C109.111 142.938 109.134 142.89 109.156 142.838V142.838C110.194 141.025 107.968 133.923 106.707 129.702C105.492 125.629 107.166 114.564 107.292 113.741C107.404 113.569 107.525 113.422 107.652 113.303C107.913 113.07 108.194 112.944 108.478 112.931C109.686 113.018 111.173 114.463 113.013 115.19C114.292 115.642 115.588 115.852 116.886 115.816H116.961C117.477 115.816 117.945 115.794 118.324 115.764C118.67 115.735 119.008 115.545 119.314 115.208V115.208C119.575 114.89 119.813 114.491 120.017 114.025L123.247 106.437L123.163 106.52C123.319 105.659 123.319 104.709 123.163 103.849L126.576 91.5881C126.748 90.9839 126.853 90.3067 126.882 89.6068C126.91 88.907 126.863 88.2026 126.742 87.5464V87.5464Z" fill="url(#paint0_linear)"/>
<path d="M88.3933 221.526L84.9547 228.379C84.1672 235.385 82.232 236.572 82.232 236.572C77.0036 238.507 79.3662 228.252 79.3662 228.252L82.6827 216.583L83.0912 215.142C83.0912 215.142 85.4559 213.653 87.0309 214.546C87.2298 214.66 87.4135 214.866 87.5679 215.151C88.5555 216.933 88.3933 221.526 88.3933 221.526Z" fill="#444176"/>
<path d="M109.596 227.635C107.159 229.124 105.441 223.764 105.595 222.42C105.749 221.075 103.369 210.518 103.369 210.518L103.554 207.733L103.727 205.154L107.728 205.749L108.105 207.396L110.451 217.664C110.451 217.664 112.032 226.146 109.596 227.635Z" fill="#444176"/>
<path opacity="0.1" d="M87.6058 216.315C87.2289 217.66 84.1735 216.981 82.6848 216.561L83.0933 215.12C83.0933 215.12 85.458 213.631 87.033 214.524C87.2319 214.638 87.4156 214.845 87.57 215.129C87.591 215.856 87.6058 216.315 87.6058 216.315Z" fill="black"/>
<path opacity="0.1" d="M108.109 207.387C106.06 210.224 103.879 208.079 103.55 207.724L103.723 205.145L107.724 205.741L108.109 207.387Z" fill="black"/>
<path d="M108.665 192.481C107.949 194.863 108.665 205.889 108.665 205.889C106.3 210.36 103.508 207.08 103.508 207.08L103.087 180.12C103.087 180.12 98.4312 157.923 95.1358 158.519C91.8404 159.114 86.3971 183.097 86.3971 183.097C86.3971 183.097 87.9006 203.652 87.6142 205.43C87.3278 207.207 87.6142 215.856 87.6142 215.856C87.113 217.642 81.8846 215.856 81.8846 215.856L80.3811 177.125L82.3773 168.481C83.5249 160.021 85.4748 150.965 86.6414 145.886C87.2204 143.359 87.6079 141.818 87.6079 141.818L91.4192 140.167L103.79 134.834L108.235 168.481C109.095 171.756 109.596 179.205 109.596 179.205C109.596 179.205 109.381 190.099 108.665 192.481Z" fill="#565387"/>
<g opacity="0.1">
<path opacity="0.1" d="M104.654 207.08L104.232 180.12C104.232 180.12 99.5767 157.923 96.2813 158.519C96.134 158.549 95.989 158.616 95.8496 158.72C99.0629 160.94 103.087 180.12 103.087 180.12L103.508 207.08C104.387 208.011 105.377 208.387 106.357 208.162C105.763 208.013 105.186 207.647 104.654 207.08V207.08Z" fill="black"/>
<path opacity="0.1" d="M83.0217 215.869L81.5182 177.138L83.5228 168.481C84.6704 160.021 86.6203 150.965 87.7869 145.886C88.3659 143.359 88.7534 141.818 88.7534 141.818L92.5647 140.167L103.858 135.285L103.797 134.816L91.4192 140.167L87.6079 141.818C87.6079 141.818 87.2204 143.359 86.6414 145.886C85.4706 150.965 83.5249 160.038 82.3773 168.481L80.3727 177.12L81.8762 215.851C81.8762 215.851 84.7315 216.828 86.4245 216.613C85.2849 216.485 84.1492 216.236 83.0217 215.869V215.869Z" fill="black"/>
</g>
<path d="M74.3104 95.8838C74.3104 95.8838 70.2274 96.3217 70.8002 105.268L71.9457 105.565L73.664 101.695L74.5231 98.4191V97.6747L74.3104 95.8838Z" fill="#CED2DF"/>
<path opacity="0.1" d="M74.3104 95.8838C74.3104 95.8838 70.2274 96.3217 70.8002 105.268L71.9457 105.565L73.664 101.695L74.5231 98.4191V97.6747L74.3104 95.8838Z" fill="black"/>
<path d="M119.733 99.1592C119.733 99.1592 123.102 102.881 122.24 107.203L121.167 108.079L119.735 106.441L119.524 102.57L119.667 99.8904L119.733 99.1592Z" fill="#CED2DF"/>
<path opacity="0.1" d="M119.733 99.1592C119.733 99.1592 123.102 102.881 122.24 107.203L121.167 108.079L119.735 106.441L119.524 102.57L119.667 99.8904L119.733 99.1592Z" fill="black"/>
<path d="M98.1006 60.726H95.2348C92.7821 60.726 90.7938 64.8606 90.7938 69.961C90.7938 75.0613 92.7821 79.196 95.2348 79.196H98.1006C100.553 79.196 102.542 75.0613 102.542 69.961C102.542 64.8606 100.553 60.726 98.1006 60.726Z" fill="#88455E"/>
<path d="M74.283 97.1493L71.7751 105.469L71.5646 103.989L68.1575 80.9037C68.041 80.1168 68.0596 79.2701 68.2102 78.5085C69.0714 74.1559 72.1078 59.6794 73.2091 66.4447C74.4978 74.3267 70.9876 82.8304 70.9876 82.8304C71.3877 89.7315 73.2512 94.7321 73.984 96.4662C74.1693 96.9172 74.283 97.1493 74.283 97.1493Z" fill="#EC8C9C"/>
<path d="M119.196 100.722C119.196 100.722 123.135 92.9763 122.986 89.8498C122.986 89.8498 119.261 77.3394 121.124 74.5238C122.598 72.2818 124.837 83.5793 125.704 88.3829C125.819 89.0227 125.865 89.707 125.839 90.3877C125.813 91.0685 125.716 91.7293 125.555 92.3238L120.846 109.66L119.196 100.722Z" fill="#EC8C9C"/>
<path d="M93.6934 79.1259C93.6934 79.1259 94.4093 88.6586 92.3331 92.2362C90.2569 95.8137 98.2796 95.7918 98.2796 95.7918L101.145 90.2788C101.145 90.2788 97.8501 83.8725 98.8524 79.1083L93.6934 79.1259Z" fill="#EC8C9C"/>
<path opacity="0.1" d="M93.5502 89.9986C93.5502 89.9986 96.6309 94.7672 99.7094 89.4031L104.723 111.004L104.437 137.369C104.437 137.369 94.0493 148.539 89.7515 141.691C85.4538 134.842 89.0356 131.265 89.0356 131.265L88.0333 111.008L89.1072 97.898C89.1072 97.898 91.0402 91.6407 91.1855 91.6407C91.3308 91.6407 93.5502 89.9986 93.5502 89.9986Z" fill="black"/>
<path d="M93.5502 89.7009C93.5502 89.7009 96.6309 94.4782 99.7115 89.1053L104.725 110.706L104.439 137.071C104.439 137.071 94.0514 148.242 89.7536 141.393C85.4559 134.545 89.0377 130.967 89.0377 130.967L88.0354 110.711L89.1093 97.6003C89.1093 97.6003 91.0423 91.3429 91.1876 91.3429C91.3329 91.3429 93.5502 89.7009 93.5502 89.7009Z" fill="#EBF1F6"/>
<path opacity="0.1" d="M93.5502 87.472C93.5502 87.472 90.6296 90.9313 87.4584 90.7605C87.1609 90.7411 86.8646 90.845 86.5866 91.066C86.3086 91.287 86.0545 91.6208 85.8391 92.0479C84.9358 93.852 83.3544 96.707 82.3752 96.707C82.1647 96.707 76.0708 99.238 76.0708 99.238L74.4599 95.8881C74.4599 95.8881 72.0594 105.644 70.9139 105.198L72.9922 110.859C72.9922 110.859 76.932 114.433 82.0889 110.115H85.0979L86.673 120.243C86.673 120.243 85.8854 133.949 85.2411 136.927C84.5968 139.904 85.4517 145.715 85.4517 145.715L91.1097 145.277C91.1097 145.277 91.3961 139.467 91.8257 138.709C92.2552 137.951 90.3222 112.344 90.3222 112.344C90.3222 112.344 89.0335 97.8937 93.7608 92.6828L93.5502 87.472Z" fill="black"/>
<path opacity="0.1" d="M91.4172 140.185C91.2088 141.952 91.0603 143.747 90.9729 145.558L86.6414 145.899C87.2205 143.372 87.6079 141.831 87.6079 141.831L91.4172 140.185Z" fill="black"/>
<path opacity="0.1" d="M74.283 97.1493L71.7751 105.469L71.5646 103.989C72.4848 102.089 73.5629 98.117 73.9924 96.4618C74.1693 96.9172 74.283 97.1493 74.283 97.1493Z" fill="black"/>
<path d="M93.5502 87.472C93.5502 87.472 90.4843 90.9313 87.3153 90.7605C87.0178 90.7411 86.7214 90.845 86.4434 91.066C86.1654 91.287 85.9114 91.6208 85.696 92.0479C84.7926 93.852 83.2112 96.707 82.2321 96.707C82.0215 96.707 75.9276 99.238 75.9276 99.238L74.3104 95.8838C74.3104 95.8838 71.9099 105.64 70.7644 105.193L72.8427 110.855C72.8427 110.855 76.7825 114.428 81.9394 110.111H84.9484L86.5235 120.235C86.5235 120.235 85.736 133.94 85.0916 136.918C84.4473 139.896 85.3022 145.706 85.3022 145.706L90.9602 145.268C90.9602 145.268 91.2466 139.458 91.6762 138.7C92.1057 137.943 90.1727 112.335 90.1727 112.335C90.1727 112.335 88.884 97.8849 93.6113 92.6741L93.5502 87.472Z" fill="#CED2DF"/>
<path opacity="0.1" d="M99.7115 86.5699C99.7115 86.5699 102.634 91.2028 106.536 91.737C106.963 91.7927 107.371 92.1215 107.705 92.6785C108.689 94.4145 109.523 96.4879 110.171 98.8089C111.746 104.173 115.614 103.577 115.614 103.577C115.614 103.577 119.375 101.121 119.589 99.1986C119.589 99.1986 119.697 109.708 122.061 107.168L118.951 114.621C118.755 115.092 118.515 115.474 118.245 115.744C117.975 116.015 117.682 116.167 117.383 116.193C116.214 116.289 114.184 116.32 112.47 115.628C109.89 114.586 108.029 112.055 106.669 114.288C106.669 114.288 104.879 125.905 106.096 130.078C107.313 134.251 109.465 141.249 108.461 143.04C107.456 144.831 106.239 144.677 104.235 140.36C102.23 136.042 102.013 128.743 102.013 128.743L102.514 109.975C102.514 109.975 100.581 95.8225 98.7239 92.9937L99.7115 86.5699Z" fill="black"/>
<path opacity="0.1" d="M122.346 106.98L119.227 114.463C119.02 114.96 118.763 115.357 118.475 115.628V115.628C118.219 115.868 117.943 116.004 117.663 116.027C116.494 116.127 114.464 116.158 112.75 115.462C110.337 114.485 108.551 112.208 107.216 113.745C107.122 113.854 107.031 113.978 106.947 114.117C106.947 114.117 105.157 125.734 106.374 129.908C107.591 134.081 109.743 141.078 108.739 142.869C108.571 143.176 108.382 143.432 108.179 143.626C107.277 144.472 106.159 143.74 104.513 140.189C102.508 135.867 102.291 128.572 102.291 128.572L102.792 109.804C102.792 109.804 100.859 95.6517 99.0019 92.823L99.821 86.7145C100.385 87.5114 103.203 91.2554 106.686 91.7327C107.113 91.7884 107.521 92.1172 107.854 92.6741C108.838 94.4104 109.672 96.4837 110.32 98.8045C111.895 104.169 115.763 103.573 115.763 103.573C116.691 102.958 117.596 102.209 118.473 101.331V101.331C119.023 100.771 119.507 100.158 119.737 99.5796C119.801 99.4286 119.848 99.2488 119.874 99.0541C119.874 99.0541 119.983 109.511 122.346 106.98Z" fill="black"/>
<path d="M122.203 107.129L119.086 114.621C118.915 115.032 118.709 115.376 118.48 115.637V115.637C118.185 115.969 117.858 116.156 117.524 116.184C116.355 116.285 114.325 116.316 112.611 115.619C110.284 114.678 108.539 112.523 107.223 113.754C107.072 113.89 106.931 114.065 106.801 114.275C106.801 114.275 105.012 125.892 106.229 130.065C107.446 134.238 109.598 141.236 108.593 143.027C108.464 143.259 108.322 143.463 108.172 143.635C107.246 144.699 106.1 144.073 104.363 140.347C102.358 136.025 102.142 128.73 102.142 128.73L102.643 109.962C102.643 109.962 100.71 95.8093 98.8524 92.9806L99.7115 86.5743L99.8147 86.7232C100.379 87.5202 103.196 91.2641 106.679 91.7414C107.106 91.7971 107.514 92.1259 107.848 92.6828C108.832 94.4191 109.666 96.4924 110.314 98.8132C111.889 104.177 115.757 103.582 115.757 103.582C116.684 102.967 117.59 102.217 118.467 101.34V101.34C119.118 100.648 119.648 99.8904 119.73 99.1986C119.73 99.1986 119.73 99.3343 119.73 99.5752C119.794 101.384 120.11 109.366 122.203 107.129Z" fill="#CED2DF"/>
<path opacity="0.1" d="M98.9156 79.3492H93.6513C93.7671 81.0898 93.8002 82.8498 93.7503 84.6039C94.5539 85.7798 95.4963 86.4785 96.4764 86.6251C97.4565 86.7717 98.4373 86.3606 99.3135 85.4358C98.8082 83.4916 98.5007 81.2847 98.9156 79.3492Z" fill="black"/>
<path d="M96.8457 86.4211C99.7333 86.4211 102.074 81.5532 102.074 75.5484C102.074 69.5436 99.7333 64.6757 96.8457 64.6757C93.9581 64.6757 91.6172 69.5436 91.6172 75.5484C91.6172 81.5532 93.9581 86.4211 96.8457 86.4211Z" fill="#EC8C9C"/>
<path opacity="0.1" d="M95.7591 73.6129C96.3424 73.4684 96.9257 73.0393 97.5006 73.2801C98.0228 73.4991 98.4671 74.2478 98.9893 74.4755C99.9958 74.9134 100.931 73.3721 101.691 71.9358L103.333 68.8268C103.698 68.1393 104.072 67.4168 104.26 66.471C104.447 65.5252 104.382 64.2816 103.982 63.686C103.382 62.8103 102.348 63.686 101.914 62.4425C101.718 61.882 101.748 61.1288 101.647 60.4588C101.436 59.1189 100.712 58.3876 100.034 58.3701C99.3557 58.3526 98.7071 58.8693 98.0586 59.2459C96.6923 60.0701 95.2638 60.3538 93.8472 60.0823C93.4648 59.9367 93.0719 59.9651 92.6953 60.1655C92.4636 60.3712 92.2582 60.6872 92.0958 61.088C91.9335 61.4888 91.8186 61.9632 91.7604 62.4731C91.4361 64.8552 91.9899 68.6955 92.5458 70.828C93.1017 72.9605 94.6494 73.8975 95.7591 73.6129Z" fill="black"/>
<path d="M95.7591 73.3151C96.3424 73.1706 96.9257 72.7415 97.5006 72.9823C98.0228 73.2013 98.4671 73.9501 98.9893 74.1778C99.9958 74.6157 100.931 73.0743 101.691 71.638L103.333 68.529C103.698 67.8416 104.072 67.119 104.26 66.1732C104.447 65.2274 104.382 63.9838 103.982 63.3883C103.382 62.5125 102.348 63.3883 101.914 62.1447C101.718 61.5842 101.748 60.831 101.647 60.1611C101.436 58.8211 100.712 58.0898 100.034 58.0723C99.3557 58.0548 98.7071 58.5715 98.0586 58.9481C96.6923 59.7723 95.2638 60.056 93.8472 59.7845C93.4648 59.6389 93.0719 59.6673 92.6953 59.8677C92.4636 60.0734 92.2582 60.3894 92.0958 60.7902C91.9335 61.191 91.8186 61.6654 91.7604 62.1753C91.4361 64.5574 91.9899 68.3977 92.5458 70.5302C93.1017 72.6627 94.6494 73.5779 95.7591 73.3151Z" fill="#88455E"/>
<path opacity="0.1" d="M86.6393 120.313C86.6393 120.313 87.7848 120.611 88.3575 122.1C88.9303 123.589 89.9326 124.035 89.9326 124.035" fill="black"/>
<path opacity="0.1" d="M76.3234 100.648C76.3234 100.648 77.2584 104.987 76.6814 105.425C76.1044 105.863 76.3234 108.998 76.3234 108.998" fill="black"/>
<g opacity="0.1">
<path opacity="0.1" d="M76.6456 99.1593C76.6456 99.1593 82.7332 96.6283 82.9438 96.6283C83.925 96.6283 85.5043 93.7733 86.4076 91.9692C86.6824 91.4219 87.0203 91.0312 87.3889 90.835H87.311C87.0135 90.8157 86.7172 90.9195 86.4392 91.1405C86.1612 91.3616 85.9071 91.6953 85.6917 92.1224C84.7884 93.9265 83.207 96.7815 82.2278 96.7815C82.0573 96.7815 78.1617 98.3886 76.5803 99.041L76.6456 99.1593Z" fill="black"/>
<path opacity="0.1" d="M93.5586 88.0982V87.5421C92.0942 89.0949 90.5183 90.1434 88.8924 90.6467C90.5056 90.3482 92.0831 89.4866 93.5586 88.0982V88.0982Z" fill="black"/>
<path opacity="0.1" d="M86.0307 145.632C86.0307 145.632 85.1716 139.821 85.8202 136.844C86.4687 133.866 87.2521 120.16 87.2521 120.16L85.6812 110.032H82.6637L82.4805 110.181H84.9547L86.5235 120.313C86.5235 120.313 85.736 134.019 85.0916 136.997C84.4473 139.975 85.3022 145.785 85.3022 145.785L90.9602 145.347V145.255L86.0307 145.632Z" fill="black"/>
</g>
<g opacity="0.1">
<path opacity="0.1" d="M108.665 140.644C108.535 140.877 108.394 141.081 108.244 141.253C107.317 142.317 106.172 141.691 104.435 137.965C102.843 134.536 102.379 129.207 102.255 127.188L102.213 128.73C102.213 128.73 102.424 136.029 104.435 140.347C106.172 144.086 107.317 144.699 108.244 143.635C108.394 143.463 108.535 143.259 108.665 143.027C108.966 142.488 108.983 141.476 108.825 140.215C108.786 140.379 108.732 140.525 108.665 140.644V140.644Z" fill="black"/>
<path opacity="0.1" d="M121.19 107.352L119.162 112.226C118.991 112.637 118.785 112.981 118.556 113.242V113.242C118.261 113.574 117.934 113.761 117.6 113.789C116.431 113.89 114.401 113.92 112.687 113.224C110.36 112.283 108.614 110.128 107.298 111.359C107.148 111.495 107.007 111.67 106.877 111.88C106.877 111.88 105.721 119.385 105.898 124.495C106.035 119.718 106.877 114.262 106.877 114.262C107.007 114.052 107.148 113.877 107.298 113.741C108.617 112.51 110.36 114.665 112.687 115.606C114.401 116.298 116.429 116.267 117.6 116.171C117.934 116.143 118.261 115.956 118.556 115.624C118.785 115.367 118.99 115.027 119.162 114.621L122.281 107.137C122.119 107.346 121.937 107.475 121.747 107.512C121.558 107.549 121.367 107.494 121.19 107.352V107.352Z" fill="black"/>
</g>
<path d="M29.6147 160.989C29.6397 161.039 29.6718 161.071 29.7063 161.081C29.7408 161.09 29.7759 161.076 29.8063 161.041C29.7415 161.043 29.677 161.026 29.6147 160.989V160.989Z" fill="url(#paint1_linear)"/>
<path d="M51.0731 88.4529C50.6941 88.2252 50.1529 87.853 49.5022 87.3801C50.1784 85.5711 50.6732 83.4984 50.9573 81.2847L50.9025 81.3285C50.9215 81.1927 50.9404 81.0614 50.9573 80.9213C49.7086 81.9766 48.3273 80.19 47.4471 77.8955C46.5669 75.6009 45.9731 72.7547 45.0087 70.6441C44.6068 69.8045 44.1745 69.0301 43.7158 68.3277C43.4315 67.8898 43.1262 67.395 42.7787 67.3731C42.2165 67.3381 41.7764 68.4853 41.2352 68.8225C40.8792 68.9891 40.5084 68.9605 40.1592 68.7393C38.7631 68.0737 37.4218 66.8432 35.9962 66.5192C35.2335 66.3233 34.4594 66.5049 33.7368 67.049C33.0209 67.6139 32.6945 68.7393 32.1154 69.6413C31.4837 70.6091 30.2498 70.5872 29.5149 70.7579C28.6231 70.9697 27.7251 71.0473 26.828 70.99C26.3124 70.897 25.7933 70.9368 25.2824 71.1082C24.2148 71.5943 23.3578 73.359 22.5576 75.0492C22.3392 75.4316 22.182 75.9433 22.107 76.5161C22.0967 76.6774 22.0967 76.8409 22.107 77.0022C22.0989 77.4436 22.1355 77.8837 22.2144 78.2939C22.4607 79.8139 22.8088 81.2541 23.2483 82.5721C23.5747 83.5442 23.9558 84.4594 24.1411 85.611C24.229 86.1772 24.2751 86.7677 24.278 87.3626C24.2689 87.9942 24.2372 88.6236 24.1832 89.2455C24.0419 90.9647 23.8096 92.6462 23.4905 94.2592C23.2923 95.0873 23.156 95.9732 23.0862 96.8866C23.0801 97.0732 23.0801 97.2604 23.0862 97.4471C23.0335 100.337 24.4359 102.417 24.7076 105.29C24.7299 105.528 24.7432 105.769 24.7476 106.012C24.7181 107.803 24.2274 109.555 23.5031 110.251C23.5663 110.303 23.6315 110.347 23.6968 110.391C23.6345 110.472 23.5698 110.545 23.5031 110.61C23.6357 110.715 23.7705 110.807 23.9074 110.881C23.0841 112.372 22.3922 114.151 21.8627 116.136C19.4264 125.568 2.92612 144.042 2.92612 144.042L3.17038 144.331L2.97245 144.599C1.54478 146.573 -1.8054 152.332 1.2226 159.614C1.2226 159.614 3.58731 151.854 5.2445 148.548C5.3182 148.399 5.3919 148.264 5.45507 148.137C5.49148 148.253 5.51589 148.384 5.52676 148.521C5.53763 148.659 5.53473 148.799 5.51824 148.934L16.3668 136.257C16.3668 136.257 20.2224 130.643 21.2984 129.378C22.0558 128.396 22.8799 127.658 23.7431 127.188L23.6168 127.298C24.0224 127.066 24.4406 126.942 24.8613 126.93C26.7817 126.991 28.8621 129.916 29.5465 141.498C30.4646 157.008 30.0392 159.806 29.7444 160.187C29.7081 160.182 29.6721 160.169 29.637 160.148C29.6461 160.164 29.656 160.179 29.6665 160.192C29.6265 160.186 29.587 160.171 29.5486 160.148C29.5698 160.188 29.5956 160.217 29.6236 160.231C29.6517 160.244 29.6809 160.243 29.7086 160.227C29.7285 160.239 29.7495 160.243 29.7702 160.238C29.7908 160.232 29.8108 160.218 29.8286 160.196C29.877 160.202 29.9255 160.202 29.9739 160.196C29.9739 160.339 29.969 160.485 29.9592 160.634C29.9444 160.634 29.8729 160.717 29.9592 160.726C29.936 161.602 29.9381 162.552 29.9592 163.546C29.0053 163.655 28.0514 163.774 27.2218 163.879L27.2955 163.06L27.3292 162.692C28.0619 162.569 28.7568 162.123 28.8389 160.888C29.0179 158.173 27.226 156.724 25.7014 156.544C24.1769 156.365 15.0339 157.63 15.0339 157.63C15.0339 157.63 13.6631 161.321 18.0114 162.447C18.1406 162.587 18.2746 162.733 18.4136 162.885C20.1171 164.903 22.4271 168.621 23.5347 170.451L23.6884 170.705L23.1914 171.546C25.8804 172.812 28.481 194.18 29.915 203.95C31.349 213.719 34.4865 213.364 37.087 211.915C39.5233 210.557 39.8244 195.844 39.8644 193.996V193.808L44.198 204.939L44.5265 205.784C44.6528 205.922 44.7777 206.05 44.9013 206.17C48.182 209.414 51.8059 203.192 50.7762 196.098C49.7339 188.948 48.1167 178.373 47.0386 173.902C46.1352 170.158 44.9687 163.94 44.2611 160.047C44.353 159.97 44.4424 159.881 44.5286 159.78C44.5286 159.78 44.5117 159.605 44.4843 159.285L44.5286 159.237C44.5286 159.237 43.4757 147.975 43.4294 139.97C43.4294 139.83 43.4294 139.684 43.4294 139.532C43.4294 139.445 43.4294 139.357 43.4294 139.274C44.2127 138.902 44.7097 138.757 44.7097 138.757L44.7244 138.407L44.6339 138.446L45.0697 128.073C45.0697 128.073 46.6701 120.992 45.4446 118.045C45.072 117.183 44.8232 116.121 44.7265 114.98C44.5159 112.269 44.7265 107.746 47.5797 103.989C51.9722 98.1958 53.6863 93.4798 53.6863 93.4798C53.6863 93.4798 53.7621 90.0993 51.0731 88.4529ZM42.3492 95.6517V90.8569C43.1641 90.7737 43.9958 90.9707 44.8149 90.8569C45.217 90.7985 45.6155 90.6591 46.0047 90.4409L46.2026 90.7255C45.0042 92.6424 43.7127 94.2934 42.3492 95.6517V95.6517ZM29.8939 170.81C30.2161 171.275 30.5404 171.756 30.8583 172.242C31.0563 174.607 31.231 176.275 31.2437 176.393C30.8803 174.447 30.4283 172.578 29.8939 170.81V170.81Z" fill="url(#paint2_linear)"/>
<path d="M36.8562 166.869L36.6667 169.011L36.5214 170.648L36.256 173.643L33.6829 177.387C33.6829 177.387 33.4512 176.976 33.068 176.323C32.0152 174.519 29.7978 170.859 28.1701 168.879C27.7518 168.324 27.2992 167.889 26.8246 167.588L36.8562 166.869Z" fill="#FFBDC6"/>
<path opacity="0.1" d="M36.8562 166.869L36.6667 169.011C36.0995 169.076 35.5306 169.016 34.9695 168.831L28.9661 169.011C28.6818 168.976 28.4165 168.927 28.1681 168.875C27.7498 168.319 27.2971 167.885 26.8225 167.583L36.8562 166.869Z" fill="black"/>
<path d="M34.9695 168.481C34.9695 168.481 37.9722 169.549 38.1428 166.874C38.3133 164.198 36.5993 162.788 35.1442 162.587C33.6892 162.385 24.9358 163.664 24.9358 163.664C24.9358 163.664 23.3923 167.942 28.9661 168.656L34.9695 168.481Z" fill="#7679B4"/>
<path opacity="0.1" d="M36.8562 166.869L36.6667 169.011L36.5214 170.648L36.256 173.643L33.6829 177.387C33.6829 177.387 33.4512 176.976 33.068 176.323C32.0152 174.519 29.7978 170.859 28.1701 168.879C27.7518 168.324 27.2992 167.889 26.8246 167.588L36.8562 166.869Z" fill="black"/>
<path opacity="0.1" d="M36.8562 166.869L36.6667 169.011C36.0995 169.076 35.5306 169.016 34.9695 168.831L28.9661 169.011C28.6818 168.976 28.4165 168.927 28.1681 168.875C27.7498 168.319 27.2971 167.885 26.8225 167.583L36.8562 166.869Z" fill="black"/>
<path opacity="0.1" d="M34.9695 168.481C34.9695 168.481 37.9722 169.549 38.1428 166.874C38.3133 164.198 36.5993 162.788 35.1442 162.587C33.6892 162.385 24.9358 163.664 24.9358 163.664C24.9358 163.664 23.3923 167.942 28.9661 168.656L34.9695 168.481Z" fill="black"/>
<path d="M41.5287 80.5491H25.8349V119.249H41.5287V80.5491Z" fill="#A66477"/>
<path opacity="0.1" d="M41.5287 80.5491H25.8349V119.249H41.5287V80.5491Z" fill="black"/>
<path d="M7.43946 146.806C7.18046 146.941 6.85197 147.458 6.48347 148.211C4.89788 151.469 2.63635 159.11 2.63635 159.11C-0.261105 151.938 2.94588 146.267 4.32091 144.318C4.65361 143.845 4.87682 143.591 4.87682 143.591L7.43946 146.806Z" fill="#FFBDC6"/>
<path d="M36.6856 92.7661C36.6856 92.7661 37.4584 104.002 40.1158 106.678C42.7732 109.353 36.6856 114.345 36.6856 114.345L28.366 107.926C28.366 107.926 33.0828 104.716 32.1394 95.262L36.6856 92.7661Z" fill="#FFBDC6"/>
<path d="M27.7743 160.358L27.5848 162.499L27.4395 164.137L27.1741 167.132L24.601 170.876C24.601 170.876 24.3693 170.464 23.9861 169.812C22.9332 168.008 20.7159 164.347 19.0882 162.368C18.6699 161.813 18.2173 161.378 17.7427 161.076L27.7743 160.358Z" fill="#FFBDC6"/>
<path opacity="0.1" d="M27.7743 160.358L27.5848 162.499C27.0176 162.565 26.4486 162.505 25.8876 162.32L19.8842 162.499C19.5999 162.464 19.3346 162.416 19.0861 162.364C18.6679 161.808 18.2152 161.374 17.7406 161.072L27.7743 160.358Z" fill="black"/>
<path d="M25.8792 161.965C25.8792 161.965 28.8819 163.034 29.0525 160.358C29.223 157.683 27.509 156.255 26.0497 156.08C24.5905 155.905 15.8434 157.148 15.8434 157.148C15.8434 157.148 14.2999 161.427 19.8737 162.14L25.8792 161.965Z" fill="#7679B4"/>
<path opacity="0.1" d="M27.431 164.141L27.1657 167.136L24.5925 170.88C24.5925 170.88 24.3609 170.469 23.9777 169.816L27.3805 164.014L27.431 164.141Z" fill="black"/>
<path d="M44.4093 204.97C44.2914 204.85 44.1721 204.723 44.0514 204.589L43.7376 203.757L39.5936 192.81V193.002C39.5662 194.82 39.2672 209.314 36.9383 210.649C34.4514 212.077 31.4487 212.431 30.0779 202.802C28.7071 193.173 26.2181 172.128 23.645 170.88L27.4605 164.369C27.4605 164.369 29.9873 170.499 31.0191 176.402C30.9812 176.026 29.2356 159.075 30.6759 156.08H43.1964C43.1964 156.08 45.1253 167.526 46.4561 173.201C47.4879 177.606 49.0356 188.019 50.0358 195.065C51.0255 202.036 47.5679 208.166 44.4093 204.97Z" fill="#7679B4"/>
<path opacity="0.1" d="M44.0598 159.285C42.1289 161.663 33.6387 160.695 30.8718 160.31L30.12 160.196C30.0379 160.196 30.1327 160.1 30.1327 160.1L30.2106 158.48L32.2679 147.602L43.2891 134.326C43.0659 135.723 42.9901 137.864 43.0091 140.32C43.0638 148.194 44.0598 159.285 44.0598 159.285Z" fill="black"/>
<path d="M44.0598 158.755C42.1289 161.133 33.6387 160.165 30.8718 159.78L30.12 159.666H29.9958L30.1327 159.592L30.8107 159.22L32.2678 147.09L43.2891 133.805C43.0659 135.202 42.9901 137.343 43.0091 139.799C43.0638 147.659 44.0598 158.755 44.0598 158.755Z" fill="#F2F1F2"/>
<path opacity="0.1" d="M43.0091 139.782C40.7686 140.855 35.837 144.012 33.9419 151.605C32.6785 156.675 31.6256 158.852 30.8739 159.763L30.1221 159.649L30.1348 159.552L30.8128 159.18L32.27 147.051L43.2912 133.765C43.0638 135.202 42.9901 137.325 43.0091 139.782Z" fill="black"/>
<path opacity="0.1" d="M4.86627 143.596L7.43944 146.806C7.18044 146.941 6.85195 147.458 6.48345 148.211C6.27288 146.897 4.92102 145.093 4.31036 144.323C4.64307 143.85 4.86627 143.596 4.86627 143.596Z" fill="black"/>
<path opacity="0.1" d="M29.6694 159.872C29.6407 159.905 29.6076 159.919 29.575 159.91C29.5424 159.901 29.512 159.871 29.4883 159.824C29.5472 159.858 29.6082 159.875 29.6694 159.872V159.872Z" fill="black"/>
<path d="M35.4832 105.964C35.4832 105.964 33.167 106.498 31.5371 102.934C31.5371 102.934 24.6768 107.037 22.3605 116.311C20.0442 125.586 4.26404 143.775 4.26404 143.775C4.26404 143.775 7.00146 146.985 6.75088 148.592L17.1278 136.108C17.1278 136.108 20.8149 130.577 21.8446 129.329C22.8743 128.082 28.5344 120.414 29.7347 141.279C30.9349 162.145 29.7347 159.671 29.7347 159.671C29.7347 159.671 31.4508 160.919 33.9461 150.913C36.4413 140.907 44.1524 138.608 44.1524 138.608L44.5736 128.099C44.5736 128.099 46.1044 121.128 44.9316 118.22C44.5739 117.365 44.3364 116.321 44.2451 115.203C44.0493 112.532 44.2451 108.079 46.9825 104.379C51.1939 98.6863 52.8153 94.0359 52.8153 94.0359C52.8153 94.0359 52.9016 90.6467 50.3285 89.044C47.7553 87.4414 37.292 78.7012 37.292 78.7012L36.9488 81.7313L45.1821 93.8608C45.1821 93.8608 41.0655 100.814 37.8122 100.639C37.7995 100.609 38.3996 105.784 35.4832 105.964Z" fill="#565388"/>
<path opacity="0.1" d="M37.0731 97.6572C36.8703 96.2202 36.712 94.7576 36.5993 93.2784L32.0531 95.7918C32.2521 97.5959 32.2165 99.4776 31.9499 101.244C32.879 101.759 33.8606 101.693 34.7718 101.055C35.6831 100.416 36.4835 99.2327 37.0731 97.6529V97.6572Z" fill="black"/>
<path d="M33.2975 101.06C35.9979 101.06 38.187 96.5074 38.187 90.8919C38.187 85.2765 35.9979 80.7242 33.2975 80.7242C30.5972 80.7242 28.4081 85.2765 28.4081 90.8919C28.4081 96.5074 30.5972 101.06 33.2975 101.06Z" fill="#FFBDC6"/>
<path opacity="0.1" d="M35.896 67.7671C37.2521 68.0868 38.5429 69.2997 39.8779 69.9566C40.2115 70.1741 40.5669 70.2028 40.9076 70.0398C41.4256 69.707 41.8467 68.5772 42.3816 68.6122C42.7122 68.6122 43.0133 69.1027 43.2786 69.5537C43.7181 70.2472 44.1314 71.0099 44.5146 71.8351C45.4348 73.915 46.0076 76.7175 46.8478 78.977C47.6879 81.2365 49.0124 82.9968 50.2064 81.959C49.3957 88.5273 46.7341 93.5498 43.8577 93.9571C42.7101 94.1191 41.5414 93.6243 40.4233 94.3249C40.1462 94.5598 39.8538 94.7074 39.5557 94.7628C38.924 94.7628 38.4018 93.5411 38.0017 92.3544C37.0668 89.5607 36.3171 86.3904 35.2643 83.8463C34.9168 83.0055 34.5062 82.2042 34.0156 82.051C33.525 81.8977 33.0722 82.3837 32.6342 82.8567C31.912 83.6361 31.1729 84.4418 30.6128 85.773C30.0527 87.1042 29.6989 89.0965 29.9305 90.9006C30.0548 91.8727 30.3411 92.7485 30.3517 93.7688C30.3517 95.3889 29.6736 96.5756 29.5367 98.1476C29.5066 98.8113 29.4953 99.478 29.5031 100.144C29.442 102.308 28.764 104.085 28.0522 105.438C27.7764 105.968 27.4689 106.533 27.3889 107.352C27.3342 107.908 27.3889 108.499 27.3531 109.064C27.25 110.47 26.5761 111.179 25.9802 111.363C25.2842 111.575 24.5736 111.4 23.9208 110.855C24.7631 110.036 25.2664 107.702 25.0727 105.6C24.8073 102.706 23.4091 100.63 23.5271 97.6791C23.593 96.7753 23.7236 95.8971 23.9145 95.0737C24.2196 93.4814 24.4413 91.8254 24.5757 90.1343C24.7135 88.8328 24.6998 87.4816 24.5357 86.1933C24.3567 85.0592 23.9924 84.1572 23.6808 83.1982C23.2587 81.8945 22.9257 80.4754 22.6911 78.9814C22.6061 78.5398 22.5736 78.0622 22.5963 77.5889C22.6642 77.0306 22.8109 76.5274 23.0175 76.1439C23.784 74.4755 24.6052 72.7371 25.6243 72.2555C26.1113 72.0868 26.6066 72.047 27.0983 72.1372C27.9569 72.194 28.8163 72.1179 29.6694 71.9095C30.3727 71.7387 31.5645 71.7606 32.1584 70.8061C32.7122 69.9303 33.0259 68.8137 33.7103 68.2532C34.4087 67.7214 35.1593 67.5545 35.896 67.7671V67.7671Z" fill="black"/>
<path opacity="0.1" d="M38.6144 172.755C38.6144 172.755 41.4445 184.345 40.5875 187.914Z" fill="black"/>
<path opacity="0.1" d="M43.746 203.757L39.602 192.81V193.002C39.602 193.002 39.362 189.464 40.1516 190.655C41.8804 193.256 44.6473 197.521 44.7062 198.257C44.7652 198.993 44.1461 201.944 43.746 203.757Z" fill="black"/>
<g opacity="0.1">
<path opacity="0.1" d="M37.8817 100.609C37.8817 100.609 38.2312 103.621 37.1005 105.128C38.8419 104.506 38.9177 101.69 38.865 100.464C38.54 100.574 38.2109 100.622 37.8817 100.609V100.609Z" fill="black"/>
<path opacity="0.1" d="M5.29587 143.062C5.29587 143.062 21.076 124.872 23.3923 115.597C25.0537 108.942 29.0567 104.952 31.1834 103.227C29.6315 104.309 24.4094 108.455 22.4468 116.311C20.1306 125.586 4.3504 143.775 4.3504 143.775L5.29587 143.062Z" fill="black"/>
<path opacity="0.1" d="M40.9518 99.1942C43.6365 97.4427 46.2034 93.1207 46.2034 93.1207L37.9701 80.9913L38.1575 79.3274L37.37 78.6705L37.0267 81.7007L45.26 93.8301C43.9388 95.9899 42.4912 97.7923 40.9518 99.1942V99.1942Z" fill="black"/>
<path opacity="0.1" d="M41.0045 140.294C42.0565 139.547 43.1361 138.981 44.2325 138.6L44.2472 138.254C43.1426 138.758 42.0584 139.44 41.0045 140.294V140.294Z" fill="black"/>
<path opacity="0.1" d="M31.0255 158.979H30.9497C30.921 159.012 30.888 159.025 30.8554 159.017C30.8228 159.008 30.7924 158.978 30.7686 158.931C30.8276 158.965 30.8885 158.981 30.9497 158.979C31.2319 158.637 31.6551 155.975 30.7686 140.561C29.8211 124.105 26.1024 125.397 24.0662 127.289C26.1466 126.098 29.0104 127.127 29.8253 141.275C30.7118 156.689 30.2885 159.355 30.0064 159.692C30.3721 159.664 30.7261 159.416 31.0255 158.979Z" fill="black"/>
<path opacity="0.1" d="M30.0064 159.697C29.9452 159.699 29.8842 159.683 29.8253 159.649C29.849 159.696 29.8794 159.726 29.912 159.735C29.9446 159.743 29.9777 159.73 30.0064 159.697V159.697Z" fill="black"/>
</g>
<path d="M35.896 67.4212C37.2521 67.7409 38.5429 68.9538 39.8779 69.6107C40.2115 69.8282 40.5669 69.8569 40.9076 69.6939C41.4256 69.3611 41.8467 68.2313 42.3816 68.2664C42.7122 68.2664 43.0133 68.7568 43.2786 69.2078C43.7181 69.9013 44.1314 70.664 44.5146 71.4892C45.4348 73.5692 46.0076 76.3716 46.8478 78.6311C47.6879 80.8906 49.0124 82.6509 50.2064 81.6131C49.3957 88.1814 46.7341 93.2039 43.8577 93.6112C42.7101 93.7732 41.5414 93.2784 40.4233 93.979C40.1462 94.2139 39.8538 94.3615 39.5557 94.4169C38.924 94.4169 38.4018 93.1952 38.0017 92.0085C37.0668 89.2148 36.3171 86.0445 35.2643 83.5004C34.9168 82.6597 34.5062 81.8583 34.0156 81.7051C33.525 81.5518 33.0722 82.0379 32.6342 82.5108C31.912 83.2902 31.1729 84.0959 30.6128 85.4271C30.0527 86.7583 29.6989 88.7506 29.9305 90.5547C30.0548 91.5268 30.3411 92.4026 30.3517 93.4229C30.3517 95.0431 29.6736 96.2297 29.5367 97.8017C29.5066 98.4654 29.4953 99.1321 29.5031 99.7985C29.442 101.962 28.764 103.739 28.0522 105.093C27.7764 105.622 27.4689 106.187 27.3889 107.006C27.3342 107.562 27.3889 108.153 27.3531 108.718C27.25 110.124 26.5761 110.833 25.9802 111.017C25.2842 111.229 24.5736 111.054 23.9208 110.509C24.7631 109.69 25.2664 107.356 25.0727 105.255C24.8073 102.36 23.4091 100.285 23.5271 97.3332C23.593 96.4294 23.7236 95.5512 23.9145 94.7278C24.2196 93.1355 24.4413 91.4795 24.5757 89.7884C24.7135 88.4869 24.6998 87.1358 24.5357 85.8475C24.3567 84.7133 23.9924 83.8113 23.6808 82.8523C23.2587 81.5486 22.9257 80.1295 22.6911 78.6355C22.6061 78.1939 22.5736 77.7163 22.5963 77.243C22.6642 76.6848 22.8109 76.1815 23.0175 75.798C23.784 74.1296 24.6052 72.3912 25.6243 71.9096C26.1113 71.7409 26.6066 71.7012 27.0983 71.7913C27.9569 71.8481 28.8163 71.772 29.6694 71.5636C30.3727 71.3929 31.5645 71.4148 32.1584 70.4602C32.7122 69.5844 33.0259 68.4678 33.7103 67.9073C34.4087 67.3756 35.1593 67.2087 35.896 67.4212V67.4212Z" fill="#A66477"/>
<path d="M175.511 44.5987C175.511 44.5418 175.511 44.4892 175.511 44.4367C175.511 44.3841 175.511 44.3228 175.498 44.2703H175.464C175.464 44.152 175.464 44.0338 175.464 43.9068C175.38 39.8476 172.681 31.2082 171.598 33.7304C170.651 35.9461 172.08 41.551 172.809 44.0732L172.874 44.3009L172.838 44.2528C172.838 44.2528 169.825 62.9417 169.469 63.6686C169.113 64.3955 166.633 79.0909 163.363 80.7462C162.716 81.0658 162.179 81.3548 161.729 81.6219L161.765 81.3723C161.975 79.9404 162.234 78.5874 162.339 76.9935C162.445 75.3996 162.339 73.4685 161.952 72.6934C161.762 72.3081 161.531 72.2555 161.375 71.6425C161.274 71.1048 161.22 70.5339 161.215 69.9566L160.937 62.8717L161.131 62.7491C162.302 61.9696 163.437 60.1217 163.569 57.6345C163.528 57.6667 163.487 57.6945 163.445 57.7177C163.46 57.5731 163.472 57.427 163.481 57.2799C162.497 58.0856 161.586 55.9662 160.638 55.016C159.078 53.4265 157.294 54.924 155.683 55.2875C153.858 55.7035 152.125 54.1271 150.259 54.4117C149.244 54.5737 148.115 56.0056 148.17 58.0856C148.202 59.2285 148.591 60.1962 148.751 61.2909C149.156 63.9401 148.256 66.5981 147.469 68.8575C146.951 70.342 146.454 72.1504 146.366 73.8932C144.553 69.9523 142.592 65.3983 142.365 63.6861L137.119 44.9972C137.119 44.9972 136.995 45.273 136.795 45.6803C136.764 45.4788 136.726 45.2424 136.684 45.0059C136.014 41.1044 134.119 31.6504 131.716 33.3844C129.314 35.1185 132.712 44.8089 134.19 48.671L134.401 49.2053C134.277 49.2686 134.147 49.2564 134.026 49.1702L139.876 70.0355C139.876 70.0355 140.939 74.029 141.914 75.1149C141.914 75.1149 149.181 94.1673 149.269 97.9769C149.358 101.787 152.537 111.95 152.537 111.95C152.537 111.95 153.601 128.463 151.739 131.366H151.762H151.777H151.8H151.821H151.864H151.891H151.918H151.954H151.984H152.026H152.047C151.958 131.545 151.868 131.742 151.775 131.957C150.396 135.136 148.633 141.949 151.042 153.536C154.586 170.613 155.119 177.304 155.119 177.304C155.119 177.304 148.381 178.031 147.054 178.574C145.879 179.056 141.312 179.393 140.267 179.45C139.895 178.548 138.793 176.551 137.307 179.45C135.445 183.08 134.117 195.214 134.117 195.214C134.117 195.214 133.407 205.014 135.801 202.47C135.801 202.47 138.638 194.303 139.434 193.94C139.829 193.76 140.248 192.547 140.569 191.378L140.585 191.4C140.604 191.4 140.682 191.312 140.809 191.207C141.398 190.721 143.022 189.552 144.302 190.134C145.003 190.454 148.01 190.528 151.162 190.511C150.451 194.058 149.175 203.21 149.175 203.21C149.175 203.21 148.642 211.744 150.411 211.394C151.674 211.135 153.611 204.423 154.622 200.591C155.355 199.474 157.454 195.472 159.006 195.774L169.463 187.428C169.463 187.428 171.944 184.525 170.615 174.909C169.562 167.264 166.566 151.614 165.382 145.514L165.346 145.356C165.06 143.88 164.887 143.005 164.887 143.005C164.401 140.22 164.082 137.321 163.938 134.374C163.927 134.142 163.919 133.905 163.91 133.673C164.057 133.546 164.195 133.379 164.321 133.179C164.321 133.179 163.346 112.677 164.321 110.496L164.338 110.457V110.43L164.355 110.387L164.392 110.286L164.439 110.163C164.491 110.019 164.555 109.839 164.626 109.62C165.184 107.921 166.224 104.042 165.925 99.4614C165.913 99.2629 165.897 99.0629 165.879 98.8615C165.765 97.6193 165.56 96.4205 165.273 95.3059C165.231 94.8418 165.205 94.372 165.195 93.9002C165.195 93.6331 165.195 93.3397 165.195 93.0245V92.9719C165.195 92.8873 165.195 92.8026 165.195 92.7179V92.6566C165.195 92.4508 165.212 92.2187 165.226 92.0261V91.9473C165.226 91.8684 165.233 91.7882 165.245 91.7064V91.6057C165.245 91.5269 165.262 91.4481 165.271 91.3693V91.2861C165.283 91.181 165.296 91.0759 165.313 90.9708V90.9182C165.325 90.8307 165.339 90.7445 165.355 90.6599L165.374 90.5592L165.416 90.349L165.437 90.2439C165.454 90.1651 165.473 90.0863 165.492 90.0074L165.506 89.9418C165.532 89.8454 165.558 89.7505 165.586 89.6571L165.61 89.5827L165.679 89.3769L165.713 89.2849L165.786 89.101L165.82 89.0222C165.858 88.939 165.896 88.8558 165.938 88.777C167.09 86.5875 172.23 70.4515 172.23 70.4515C172.23 70.4515 173.47 66.8214 173.47 64.4656C173.54 64.413 175.732 49.2184 175.511 44.5987ZM161.712 180.234C161.586 177.747 161.459 174.664 161.343 171.476L163.348 177.974C163.348 177.974 163.159 179.954 161.712 180.234Z" fill="url(#paint3_linear)"/>
<path d="M140.811 178.859C140.811 178.859 139.61 174.918 137.808 178.504C136.005 182.09 134.721 194.018 134.721 194.018C134.721 194.018 134.035 203.652 136.351 201.151C136.351 201.151 139.088 193.125 139.867 192.77C140.646 192.416 141.497 187.954 141.497 187.954L140.811 178.859Z" fill="#493545"/>
<path d="M153.674 188.488C153.674 188.488 152.045 186.881 151.531 188.133C151.017 189.385 149.301 201.865 149.301 201.865C149.301 201.865 148.787 210.071 150.501 209.712C152.215 209.353 155.218 196.506 155.218 196.506L153.674 188.488Z" fill="#493545"/>
<path opacity="0.05" d="M153.674 188.488C153.674 188.488 152.045 186.881 151.531 188.133C151.017 189.385 149.301 201.865 149.301 201.865C149.301 201.865 148.787 210.071 150.501 209.712C152.215 209.353 155.218 196.506 155.218 196.506L153.674 188.488Z" fill="black"/>
<path d="M159.335 164.233L163.022 176.183C163.022 176.183 162.765 178.859 160.535 178.324L152.902 188.313C152.902 188.313 152.238 200.473 154.359 199.369C154.702 199.19 157.096 194.018 158.819 194.377L168.941 186.171C168.941 186.171 171.341 183.316 170.055 173.867C168.768 164.417 164.515 142.505 164.515 142.505L157.791 150.326L159.335 164.233Z" fill="#3E3D77"/>
<path opacity="0.05" d="M159.335 164.233L163.022 176.183C163.022 176.183 162.765 178.859 160.535 178.324L152.902 188.313C152.902 188.313 152.238 200.473 154.359 199.369C154.702 199.19 157.096 194.018 158.819 194.377L168.941 186.171C168.941 186.171 171.341 183.316 170.055 173.867C168.768 164.417 164.515 142.505 164.515 142.505L157.791 150.326L159.335 164.233Z" fill="black"/>
<path d="M161.651 181.889C162.165 188.667 159.25 189.202 159.25 189.202C159.25 189.202 146.128 189.736 144.584 189.022C143.041 188.308 140.981 190.27 140.981 190.27C138.322 186.881 140.467 178.5 140.467 178.5C140.467 178.5 145.957 178.145 147.244 177.624C148.53 177.103 155.047 176.363 155.047 176.363C155.047 176.363 154.534 169.764 151.101 153.002C148.77 141.617 150.47 134.917 151.811 131.795C152.153 130.966 152.549 130.241 152.988 129.64L163.538 130.709C163.526 131.815 163.546 132.922 163.597 134.024C163.777 137.806 164.25 141.502 164.997 144.971C164.397 144.971 160.537 152.463 160.537 152.463C160.537 152.463 161.135 175.115 161.651 181.889Z" fill="#3E3D77"/>
<path opacity="0.1" d="M141.238 179.213C141.238 179.213 146.728 178.859 148.014 178.338C149.301 177.817 155.818 177.09 155.818 177.09C155.818 177.09 155.304 170.491 151.872 153.729C149.541 142.343 151.24 135.644 152.582 132.522C152.924 131.693 153.32 130.968 153.759 130.367L163.533 131.357C163.533 131.147 163.533 130.919 163.533 130.722L152.984 129.654C152.545 130.254 152.149 130.98 151.807 131.808C150.472 134.934 148.766 141.63 151.097 153.015C154.538 169.764 155.047 176.363 155.047 176.363C155.047 176.363 148.52 177.077 147.244 177.611C145.968 178.145 140.467 178.487 140.467 178.487C140.467 178.487 138.324 186.872 140.981 190.274C140.981 190.274 141.061 190.196 141.192 190.082C139.425 186.303 141.238 179.213 141.238 179.213Z" fill="black"/>
<path d="M156.932 64.1808H151.615V92.1792H156.932V64.1808Z" fill="#493545"/>
<path opacity="0.1" d="M156.932 64.1808H151.615V92.1792H156.932V64.1808Z" fill="black"/>
<path d="M159.973 60.0735C160.156 60.1786 160.362 60.1917 160.486 60.7172C160.564 61.1371 160.606 61.5814 160.611 62.0309L160.946 70.6835C160.95 71.25 161.003 71.8103 161.101 72.3387C161.242 72.9255 161.476 72.9955 161.659 73.3721C162.028 74.134 162.135 76.0432 162.034 77.5977C161.933 79.1522 161.678 80.4834 161.478 81.889C161.192 83.9032 161.002 86.1671 160.6 87.8661C160.198 89.5651 159.467 90.4934 158.996 89.0659C158.524 87.6384 158.587 84.7571 158.499 82.3969C158.351 78.456 157.612 75.058 157.562 71.0907C157.52 67.881 157.934 64.8859 158.193 61.8426C158.379 59.7539 158.389 57.2185 158.659 55.34C158.884 57.5732 159.314 59.6969 159.973 60.0735Z" fill="#493545"/>
<path opacity="0.1" d="M159.973 60.0735C160.156 60.1786 160.362 60.1917 160.486 60.7172C160.564 61.1371 160.606 61.5814 160.611 62.0309L160.946 70.6835C160.95 71.25 161.003 71.8103 161.101 72.3387C161.242 72.9255 161.476 72.9955 161.659 73.3721C162.028 74.134 162.135 76.0432 162.034 77.5977C161.933 79.1522 161.678 80.4834 161.478 81.889C161.192 83.9032 161.002 86.1671 160.6 87.8661C160.198 89.5651 159.467 90.4934 158.996 89.0659C158.524 87.6384 158.587 84.7571 158.499 82.3969C158.351 78.456 157.612 75.058 157.562 71.0907C157.52 67.881 157.934 64.8859 158.193 61.8426C158.379 59.7539 158.389 57.2185 158.659 55.34C158.884 57.5732 159.314 59.6969 159.973 60.0735Z" fill="black"/>
<path d="M137.465 47.7733L135.408 51.3421C135.408 51.3421 135.163 50.7466 134.799 49.7832C133.369 45.9868 130.082 36.4627 132.405 34.7594C134.727 33.056 136.564 42.3435 137.212 46.1794C137.376 47.1515 137.465 47.7733 137.465 47.7733Z" fill="#C77485"/>
<path d="M174.601 46.5253C173.744 49.2008 172.544 46.5253 172.544 46.5253C172.544 46.5253 172.39 46.048 172.173 45.2773C171.468 42.7945 170.084 37.2903 171 35.1096C172.053 32.6181 174.662 41.1218 174.742 45.1109C174.767 45.6014 174.718 46.0958 174.601 46.5253V46.5253Z" fill="#C77485"/>
<path d="M153.502 75.417C153.502 75.417 155.218 86.8326 154.702 90.2175C154.186 93.6024 158.391 97.5433 158.391 97.5433H163.194C163.194 97.5433 164.911 90.2306 164.481 88.0894C164.051 85.9481 160.364 84.3455 160.364 84.3455C160.364 84.3455 158.221 84.3455 158.307 72.3956L153.502 75.417Z" fill="#C77485"/>
<path opacity="0.1" d="M137.465 47.7733L135.408 51.3421C135.408 51.3421 135.163 50.7466 134.799 49.7832C135.546 49.5074 136.707 47.2391 137.214 46.1794C137.376 47.1515 137.465 47.7733 137.465 47.7733Z" fill="black"/>
<path opacity="0.1" d="M174.601 46.5254C173.744 49.2008 172.544 46.5254 172.544 46.5254C172.544 46.5254 172.39 46.0481 172.173 45.2774L172.2 45.0978C172.756 45.9254 174.485 45.2204 174.742 45.0978C174.768 45.5927 174.719 46.0921 174.601 46.5254V46.5254Z" fill="black"/>
<path opacity="0.1" d="M163.592 134.019C160.939 136.537 152.318 132.053 151.8 131.786C152.143 130.958 152.539 130.232 152.977 129.632L163.527 130.7C163.518 131.808 163.54 132.916 163.592 134.019V134.019Z" fill="black"/>
<path d="M154.618 85.2256C154.618 85.2256 152.561 86.6531 149.644 81.1227C149.644 81.1227 143.116 67.7453 142.695 64.5356L137.642 46.1444C137.642 46.1444 135.498 50.9611 134.639 50.2474L140.299 70.7579C140.299 70.7579 141.329 74.6989 142.272 75.7498C142.272 75.7498 149.305 94.4782 149.389 98.2221C149.474 101.966 152.558 111.994 152.558 111.994C152.558 111.994 153.588 128.222 151.786 131.077C151.786 131.077 161.819 136.428 163.963 132.859C163.963 132.859 163.02 112.716 163.963 110.566C163.963 110.566 166.879 103.433 164.906 95.586C164.906 95.586 164.485 91.3079 165.593 89.1666C166.7 87.0253 171.682 71.152 171.682 71.152C171.682 71.152 172.883 67.5832 172.883 65.2668C172.883 65.2668 175.113 49.573 174.778 45.47C174.778 45.47 172.805 46.3458 172.205 45.47C172.205 45.47 169.288 63.8612 168.945 64.5531C168.602 65.2449 166.208 79.7127 163.028 81.3197C159.848 82.9267 159.341 83.6361 159.341 83.6361C159.341 83.6361 165.515 91.6626 162.514 95.2269C159.514 98.7913 154.618 85.2256 154.618 85.2256Z" fill="#FFAAC4"/>
<path opacity="0.1" d="M158.516 78.1625C158.414 76.4825 158.372 74.789 158.391 73.0962L153.588 76.1263C153.715 76.7917 153.815 77.477 153.889 78.1756C154.439 78.6792 155.18 79.8703 155.818 79.8703C156.783 79.9359 157.732 79.3354 158.516 78.1625V78.1625Z" fill="black"/>
<path d="M155.732 79.3405C158.195 79.3405 160.192 75.1882 160.192 70.066C160.192 64.9439 158.195 60.7916 155.732 60.7916C153.269 60.7916 151.272 64.9439 151.272 70.066C151.272 75.1882 153.269 79.3405 155.732 79.3405Z" fill="#C77485"/>
<path opacity="0.1" d="M150.425 55.7778C149.444 55.9355 148.349 57.3455 148.404 59.3904C148.433 60.5157 148.804 61.466 148.966 62.5432C149.356 65.1486 148.488 67.7628 147.726 69.9872C146.964 72.2117 146.252 75.1586 146.905 77.5145C147.091 78.0816 147.292 78.6269 147.507 79.1478C148.313 81.4116 148.303 84.4681 148.661 87.1874C149.118 90.6662 150.199 93.6488 151.681 95.522C153.163 97.3951 154.933 98.0166 156.629 97.2587C155.99 95.5644 155.672 93.4432 155.734 91.2947C155.782 89.7358 156.024 88.1069 155.734 86.6663C155.359 84.814 154.26 84.0827 153.693 82.4626C153.127 80.8424 153.165 78.596 153.439 76.665C153.712 74.7339 154.186 72.9429 154.414 70.9725C154.47 70.3975 154.54 69.829 154.624 69.2691C155.02 66.9308 156.203 65.5733 157.362 64.9909C158.52 64.4086 159.737 64.3735 160.868 63.6072C161.998 62.8409 163.098 61.0456 163.228 58.5803C162.276 59.3729 161.394 57.3061 160.476 56.3558C158.964 54.797 157.239 56.2639 155.681 56.623C153.906 57.0346 152.222 55.5063 150.425 55.7778Z" fill="black"/>
<path d="M150.339 55.4232C149.358 55.5809 148.263 56.9908 148.318 59.0358C148.347 60.1611 148.718 61.1113 148.88 62.1885C149.269 64.794 148.402 67.4081 147.639 69.6326C146.877 71.8571 146.165 74.804 146.818 77.1598C147.004 77.727 147.205 78.2723 147.42 78.7931C148.227 81.057 148.216 84.1135 148.574 86.8327C149.032 90.3116 150.112 93.2941 151.594 95.1673C153.076 97.0405 154.847 97.662 156.542 96.9041C155.904 95.2098 155.586 93.0886 155.647 90.9401C155.696 89.3812 155.938 87.7523 155.647 86.3116C155.273 84.4594 154.173 83.7281 153.607 82.1079C153.041 80.4878 153.078 78.2414 153.352 76.3103C153.626 74.3793 154.1 72.5883 154.327 70.6178C154.383 70.0429 154.454 69.4744 154.538 68.9145C154.934 66.5762 156.117 65.2187 157.275 64.6363C158.433 64.0539 159.65 64.0189 160.781 63.2526C161.912 62.4863 163.011 60.691 163.142 58.2257C162.19 59.0183 161.308 56.9514 160.39 56.0012C158.878 54.4424 157.153 55.9093 155.595 56.2683C153.824 56.6756 152.146 55.1298 150.339 55.4232Z" fill="#493545"/>
<path opacity="0.1" d="M160.15 90.6686C160.15 90.6686 161.935 93.9834 162.287 95.4459Z" fill="black"/>
<path opacity="0.1" d="M164.013 110.465C164.013 110.465 161.784 110.465 160.754 111C159.724 111.534 157.237 111 157.237 111" fill="black"/>
<g opacity="0.1">
<path opacity="0.1" d="M162.508 95.2138C162.316 95.4426 162.108 95.608 161.891 95.7042C162.45 95.9621 163.036 95.7878 163.538 95.2138C166.54 91.645 160.364 83.623 160.364 83.623H159.335C159.335 83.623 165.511 91.6494 162.508 95.2138Z" fill="black"/>
<path opacity="0.1" d="M174.793 45.7809C174.793 45.6671 174.78 45.5576 174.772 45.4569C174.419 45.6089 174.062 45.7215 173.704 45.7941C174.066 45.8769 174.431 45.8724 174.793 45.7809V45.7809Z" fill="black"/>
<path opacity="0.1" d="M152.817 131.063C154.618 128.208 153.59 111.98 153.59 111.98C153.59 111.98 150.503 101.992 150.417 98.2483C150.331 94.5044 143.3 75.7761 143.3 75.7761C142.356 74.7076 141.327 70.7842 141.327 70.7842C141.327 70.7842 135.494 50.9874 134.637 50.2736L140.297 70.7842C140.297 70.7842 141.327 74.7251 142.27 75.7761C142.27 75.7761 149.303 94.5044 149.387 98.2483C149.471 101.992 152.558 111.994 152.558 111.994C152.558 111.994 153.588 128.222 151.786 131.077C151.786 131.077 157.953 134.365 161.651 134.067C157.945 133.796 152.817 131.063 152.817 131.063Z" fill="black"/>
<path opacity="0.1" d="M154.668 85.3658L154.618 85.23C154.559 85.2661 154.499 85.2939 154.439 85.3132C154.519 85.3351 154.595 85.3526 154.668 85.3658Z" fill="black"/>
</g>
<g opacity="0.1">
<path opacity="0.1" d="M174.772 45.435L174.719 45.4569C174.628 50.9348 172.801 63.8043 172.801 63.8043C172.801 66.1207 171.6 69.6895 171.6 69.6895C171.6 69.6895 166.627 85.5628 165.511 87.7041C164.395 89.8453 164.824 94.1235 164.824 94.1235L164.835 94.1673C164.801 92.7266 164.885 90.4934 165.595 89.1272C166.709 86.9859 171.685 71.1126 171.685 71.1126C171.685 71.1126 172.885 67.5438 172.885 65.2274C172.885 65.2537 175.115 49.5599 174.772 45.435Z" fill="black"/>
<path opacity="0.1" d="M163.881 109.125C164.009 110.641 163.923 109.038 163.967 110.553C163.967 110.553 166.073 105.417 165.498 99.0673C165.671 104.742 163.881 109.125 163.881 109.125Z" fill="black"/>
</g>
<path opacity="0.1" d="M98.924 289.67C148.66 289.67 188.979 281.616 188.979 271.682C188.979 261.747 148.66 253.693 98.924 253.693C49.1881 253.693 8.8692 261.747 8.8692 271.682C8.8692 281.616 49.1881 289.67 98.924 289.67Z" fill="#6C63FF"/>
<path d="M64.0156 253.431C64.0156 253.431 60.9497 231.777 64.5904 215.843C66.1389 209.178 66.6058 201.649 65.9212 194.386C65.5831 190.943 65.0939 187.572 64.4599 184.315" stroke="#535461" stroke-width="2" stroke-miterlimit="10"/>
<path d="M66.7298 174.252C66.7298 176.906 64.4135 184.599 64.4135 184.599C64.4135 184.599 62.0973 176.906 62.0973 174.252C62.0737 173.591 62.116 172.928 62.2215 172.303C62.3269 171.677 62.4932 171.104 62.71 170.619C62.9268 170.133 63.1894 169.746 63.4814 169.481C63.7735 169.217 64.0886 169.08 64.4072 169.08C64.7258 169.08 65.041 169.217 65.333 169.481C65.625 169.746 65.8876 170.133 66.1044 170.619C66.3212 171.104 66.4875 171.677 66.593 172.303C66.6984 172.928 66.7407 173.591 66.7172 174.252H66.7298Z" fill="#6C63FF"/>
<path d="M70.5433 188.948C69.8505 191.176 65.9002 195.021 65.9002 195.021C65.9002 195.021 65.9718 185.952 66.6646 183.724C66.8182 183.145 67.0275 182.638 67.2794 182.235C67.5313 181.832 67.8204 181.541 68.1287 181.38C68.437 181.219 68.7579 181.192 69.0715 181.3C69.3851 181.409 69.6846 181.65 69.9514 182.009C70.2182 182.369 70.4465 182.838 70.6223 183.389C70.798 183.94 70.9174 184.56 70.9729 185.211C71.0284 185.862 71.0189 186.529 70.945 187.172C70.8711 187.815 70.7344 188.419 70.5433 188.948V188.948Z" fill="#6C63FF"/>
<path d="M70.3769 214.069C69.2377 215.264 64.9021 214.437 64.9021 214.437C64.9021 214.437 67.1657 206.682 68.3049 205.486C68.578 205.146 68.882 204.925 69.1978 204.84C69.5137 204.754 69.8346 204.805 70.1406 204.989C70.4466 205.173 70.7311 205.486 70.9762 205.909C71.2214 206.332 71.4219 206.856 71.5654 207.447C71.7088 208.038 71.792 208.685 71.8099 209.346C71.8277 210.008 71.7798 210.67 71.669 211.291C71.5583 211.912 71.3871 212.479 71.1662 212.956C70.9454 213.433 70.6795 213.811 70.3854 214.065L70.3769 214.069Z" fill="#6C63FF"/>
<path d="M68.1933 233.012C67.1678 234.588 62.8174 235.302 62.8174 235.302C62.8174 235.302 64.4178 226.864 65.4454 225.283C65.9399 224.658 66.5289 224.441 67.0966 224.674C67.6643 224.907 68.1695 225.573 68.5128 226.542C68.8561 227.511 69.0126 228.712 68.9515 229.908C68.8904 231.105 68.6162 232.21 68.1828 233.008L68.1933 233.012Z" fill="#6C63FF"/>
<path d="M61.0444 195.538C61.9604 197.386 66.2245 199.304 66.2245 199.304C66.2245 199.304 65.1716 190.498 64.264 188.645C64.0523 188.152 63.7939 187.754 63.505 187.477C63.216 187.2 62.9028 187.05 62.5848 187.036C62.2667 187.022 61.9507 187.145 61.6564 187.396C61.3621 187.647 61.0958 188.021 60.8741 188.496C60.6525 188.97 60.4802 189.535 60.368 190.154C60.2559 190.773 60.2062 191.433 60.2222 192.094C60.2382 192.754 60.3194 193.401 60.4609 193.994C60.6024 194.586 60.801 195.112 61.0444 195.538Z" fill="#6C63FF"/>
<path d="M58.6292 217.765C59.7683 218.96 64.104 218.133 64.104 218.133C64.104 218.133 61.8488 210.378 60.7096 209.204C60.1695 208.738 59.5645 208.714 59.0162 209.137C58.4678 209.559 58.0167 210.398 57.7533 211.484C57.49 212.57 57.4339 213.822 57.5963 214.991C57.7588 216.159 58.1278 217.156 58.6292 217.782V217.765Z" fill="#6C63FF"/>
<path d="M57.7027 240.036C58.7281 241.612 63.0785 242.326 63.0785 242.326C63.0785 242.326 61.4782 233.888 60.4506 232.307C60.2097 231.864 59.9272 231.53 59.6209 231.327C59.3146 231.123 58.9913 231.055 58.6715 231.125C58.3518 231.196 58.0426 231.404 57.7636 231.737C57.4847 232.069 57.2421 232.519 57.0514 233.057C56.8606 233.596 56.7258 234.211 56.6556 234.863C56.5854 235.516 56.5813 236.191 56.6436 236.848C56.7058 237.504 56.8331 238.125 57.0172 238.674C57.2014 239.222 57.4384 239.684 57.7132 240.031L57.7027 240.036Z" fill="#6C63FF"/>
<path opacity="0.1" d="M66.7298 174.252C66.7298 176.906 64.4135 184.599 64.4135 184.599C64.4135 184.599 62.0973 176.906 62.0973 174.252C62.0737 173.591 62.116 172.928 62.2215 172.303C62.3269 171.677 62.4932 171.104 62.71 170.619C62.9268 170.133 63.1894 169.746 63.4814 169.481C63.7735 169.217 64.0886 169.08 64.4072 169.08C64.7258 169.08 65.041 169.217 65.333 169.481C65.625 169.746 65.8876 170.133 66.1044 170.619C66.3212 171.104 66.4875 171.677 66.593 172.303C66.6984 172.928 66.7407 173.591 66.7172 174.252H66.7298Z" fill="#6C63FF"/>
<path opacity="0.1" d="M70.5433 188.948C69.8505 191.176 65.9002 195.021 65.9002 195.021C65.9002 195.021 65.9718 185.952 66.6646 183.724C66.8182 183.145 67.0275 182.638 67.2794 182.235C67.5313 181.832 67.8204 181.541 68.1287 181.38C68.437 181.219 68.7579 181.192 69.0715 181.3C69.3851 181.409 69.6846 181.65 69.9514 182.009C70.2182 182.369 70.4465 182.838 70.6223 183.389C70.798 183.94 70.9174 184.56 70.9729 185.211C71.0284 185.862 71.0189 186.529 70.945 187.172C70.8711 187.815 70.7344 188.419 70.5433 188.948V188.948Z" fill="#6C63FF"/>
<path opacity="0.1" d="M70.3769 214.069C69.2377 215.264 64.9021 214.437 64.9021 214.437C64.9021 214.437 67.1657 206.682 68.3049 205.486C68.578 205.146 68.882 204.925 69.1978 204.84C69.5137 204.754 69.8346 204.805 70.1406 204.989C70.4466 205.173 70.7311 205.486 70.9762 205.909C71.2214 206.332 71.4219 206.856 71.5654 207.447C71.7088 208.038 71.792 208.685 71.8099 209.346C71.8277 210.008 71.7798 210.67 71.669 211.291C71.5583 211.912 71.3871 212.479 71.1662 212.956C70.9454 213.433 70.6795 213.811 70.3854 214.065L70.3769 214.069Z" fill="#6C63FF"/>
<path opacity="0.1" d="M68.1933 233.012C67.1678 234.588 62.8174 235.302 62.8174 235.302C62.8174 235.302 64.4178 226.864 65.4454 225.283C65.9399 224.658 66.5289 224.441 67.0966 224.674C67.6643 224.907 68.1695 225.573 68.5128 226.542C68.8561 227.511 69.0126 228.712 68.9515 229.908C68.8904 231.105 68.6162 232.21 68.1828 233.008L68.1933 233.012Z" fill="#6C63FF"/>
<path opacity="0.1" d="M61.0444 195.538C61.9604 197.386 66.2245 199.304 66.2245 199.304C66.2245 199.304 65.1716 190.498 64.264 188.645C64.0523 188.152 63.7939 187.754 63.505 187.477C63.216 187.2 62.9028 187.05 62.5848 187.036C62.2667 187.022 61.9507 187.145 61.6564 187.396C61.3621 187.647 61.0958 188.021 60.8741 188.496C60.6525 188.97 60.4802 189.535 60.368 190.154C60.2559 190.773 60.2062 191.433 60.2222 192.094C60.2382 192.754 60.3194 193.401 60.4609 193.994C60.6024 194.586 60.801 195.112 61.0444 195.538Z" fill="#6C63FF"/>
<path opacity="0.1" d="M58.6292 217.765C59.7683 218.96 64.104 218.133 64.104 218.133C64.104 218.133 61.8488 210.378 60.7096 209.204C60.1695 208.738 59.5645 208.714 59.0162 209.137C58.4678 209.559 58.0167 210.398 57.7533 211.484C57.49 212.57 57.4339 213.822 57.5963 214.991C57.7588 216.159 58.1278 217.156 58.6292 217.782V217.765Z" fill="#6C63FF"/>
<path opacity="0.1" d="M57.7027 240.036C58.7281 241.612 63.0785 242.326 63.0785 242.326C63.0785 242.326 61.4782 233.888 60.4506 232.307C60.2097 231.864 59.9272 231.53 59.6209 231.327C59.3146 231.123 58.9913 231.055 58.6715 231.125C58.3518 231.196 58.0426 231.404 57.7636 231.737C57.4847 232.069 57.2421 232.519 57.0514 233.057C56.8606 233.596 56.7258 234.211 56.6556 234.863C56.5854 235.516 56.5813 236.191 56.6436 236.848C56.7058 237.504 56.8331 238.125 57.0172 238.674C57.2014 239.222 57.4384 239.684 57.7132 240.031L57.7027 240.036Z" fill="#6C63FF"/>
<path d="M126.058 253.742C126.058 253.742 122.992 232.088 126.633 216.153C128.181 209.489 128.648 201.96 127.964 194.697C127.626 191.254 127.136 187.883 126.502 184.626" stroke="#535461" stroke-width="2" stroke-miterlimit="10"/>
<path d="M128.768 174.559C128.768 177.212 126.452 184.906 126.452 184.906C126.452 184.906 124.136 177.212 124.136 174.559C124.179 173.346 124.441 172.212 124.869 171.385C125.298 170.557 125.861 170.097 126.446 170.097C127.03 170.097 127.593 170.557 128.022 171.385C128.45 172.212 128.712 173.346 128.756 174.559H128.768Z" fill="#6C63FF"/>
<path d="M132.588 189.254C131.895 191.483 127.945 195.328 127.945 195.328C127.945 195.328 128.016 186.259 128.709 184.03C128.863 183.452 129.072 182.945 129.324 182.542C129.576 182.139 129.865 181.847 130.173 181.687C130.482 181.526 130.803 181.499 131.116 181.607C131.43 181.715 131.729 181.956 131.996 182.316C132.263 182.675 132.491 183.145 132.667 183.696C132.843 184.246 132.962 184.866 133.017 185.517C133.073 186.168 133.064 186.836 132.99 187.479C132.916 188.121 132.779 188.726 132.588 189.254V189.254Z" fill="#6C63FF"/>
<path d="M132.428 214.376C131.289 215.571 126.953 214.743 126.953 214.743C126.953 214.743 129.217 206.989 130.356 205.793C130.629 205.449 130.934 205.226 131.251 205.139C131.568 205.051 131.89 205.101 132.197 205.285C132.504 205.47 132.789 205.784 133.035 206.208C133.281 206.633 133.482 207.159 133.625 207.753C133.769 208.347 133.851 208.996 133.868 209.659C133.885 210.323 133.836 210.987 133.723 211.609C133.611 212.231 133.438 212.798 133.215 213.274C132.992 213.75 132.724 214.125 132.428 214.376V214.376Z" fill="#6C63FF"/>
<path d="M130.236 233.319C129.21 234.895 124.86 235.609 124.86 235.609C124.86 235.609 126.46 227.171 127.488 225.59C127.982 224.965 128.571 224.748 129.139 224.981C129.707 225.214 130.212 225.88 130.555 226.849C130.899 227.817 131.055 229.018 130.994 230.215C130.933 231.411 130.659 232.517 130.225 233.314L130.236 233.319Z" fill="#6C63FF"/>
<path d="M123.091 195.844C124.007 197.692 128.271 199.61 128.271 199.61C128.271 199.61 127.218 190.804 126.311 188.952C126.099 188.458 125.841 188.061 125.552 187.784C125.263 187.507 124.95 187.357 124.632 187.343C124.313 187.329 123.997 187.451 123.703 187.702C123.409 187.953 123.143 188.328 122.921 188.802C122.699 189.277 122.527 189.841 122.415 190.46C122.303 191.079 122.253 191.74 122.269 192.4C122.285 193.061 122.366 193.708 122.508 194.3C122.649 194.893 122.848 195.418 123.091 195.844V195.844Z" fill="#6C63FF"/>
<path d="M120.672 218.071C121.811 219.267 126.147 218.439 126.147 218.439C126.147 218.439 123.883 210.684 122.744 209.489C122.204 209.023 121.599 208.998 121.05 209.421C120.502 209.844 120.051 210.682 119.787 211.768C119.524 212.854 119.468 214.107 119.63 215.275C119.793 216.444 120.162 217.441 120.663 218.067L120.672 218.071Z" fill="#6C63FF"/>
<path d="M119.747 240.342C120.773 241.919 125.123 242.632 125.123 242.632C125.123 242.632 123.523 234.194 122.495 232.613C122.001 231.989 121.412 231.771 120.844 232.004C120.276 232.237 119.771 232.904 119.428 233.872C119.085 234.841 118.928 236.042 118.989 237.238C119.05 238.435 119.324 239.541 119.758 240.338L119.747 240.342Z" fill="#6C63FF"/>
<path opacity="0.1" d="M128.768 174.559C128.768 177.212 126.452 184.906 126.452 184.906C126.452 184.906 124.136 177.212 124.136 174.559C124.179 173.346 124.441 172.212 124.869 171.385C125.298 170.557 125.861 170.097 126.446 170.097C127.03 170.097 127.593 170.557 128.022 171.385C128.45 172.212 128.712 173.346 128.756 174.559H128.768Z" fill="#6C63FF"/>
<path opacity="0.1" d="M132.588 189.254C131.895 191.483 127.945 195.328 127.945 195.328C127.945 195.328 128.016 186.259 128.709 184.03C128.863 183.452 129.072 182.945 129.324 182.542C129.576 182.139 129.865 181.847 130.173 181.687C130.482 181.526 130.803 181.499 131.116 181.607C131.43 181.715 131.729 181.956 131.996 182.316C132.263 182.675 132.491 183.145 132.667 183.696C132.843 184.246 132.962 184.866 133.017 185.517C133.073 186.168 133.064 186.836 132.99 187.479C132.916 188.121 132.779 188.726 132.588 189.254V189.254Z" fill="#6C63FF"/>
<path opacity="0.1" d="M132.428 214.376C131.289 215.571 126.953 214.743 126.953 214.743C126.953 214.743 129.217 206.989 130.356 205.793C130.629 205.449 130.934 205.226 131.251 205.139C131.568 205.051 131.89 205.101 132.197 205.285C132.504 205.47 132.789 205.784 133.035 206.208C133.281 206.633 133.482 207.159 133.625 207.753C133.769 208.347 133.851 208.996 133.868 209.659C133.885 210.323 133.836 210.987 133.723 211.609C133.611 212.231 133.438 212.798 133.215 213.274C132.992 213.75 132.724 214.125 132.428 214.376V214.376Z" fill="#6C63FF"/>
<path opacity="0.1" d="M130.236 233.319C129.21 234.895 124.86 235.609 124.86 235.609C124.86 235.609 126.46 227.171 127.488 225.59C127.982 224.965 128.571 224.748 129.139 224.981C129.707 225.214 130.212 225.88 130.555 226.849C130.899 227.817 131.055 229.018 130.994 230.215C130.933 231.411 130.659 232.517 130.225 233.314L130.236 233.319Z" fill="#6C63FF"/>
<path opacity="0.1" d="M123.091 195.844C124.007 197.692 128.271 199.61 128.271 199.61C128.271 199.61 127.218 190.804 126.311 188.952C126.099 188.458 125.841 188.061 125.552 187.784C125.263 187.507 124.95 187.357 124.632 187.343C124.313 187.329 123.997 187.451 123.703 187.702C123.409 187.953 123.143 188.328 122.921 188.802C122.699 189.277 122.527 189.841 122.415 190.46C122.303 191.079 122.253 191.74 122.269 192.4C122.285 193.061 122.366 193.708 122.508 194.3C122.649 194.893 122.848 195.418 123.091 195.844V195.844Z" fill="#6C63FF"/>
<path opacity="0.1" d="M120.672 218.071C121.811 219.267 126.147 218.439 126.147 218.439C126.147 218.439 123.883 210.684 122.744 209.489C122.204 209.023 121.599 208.998 121.05 209.421C120.502 209.844 120.051 210.682 119.787 211.768C119.524 212.854 119.468 214.107 119.63 215.275C119.793 216.444 120.162 217.441 120.663 218.067L120.672 218.071Z" fill="#6C63FF"/>
<path opacity="0.1" d="M119.747 240.342C120.773 241.919 125.123 242.632 125.123 242.632C125.123 242.632 123.523 234.194 122.495 232.613C122.001 231.989 121.412 231.771 120.844 232.004C120.276 232.237 119.771 232.904 119.428 233.872C119.085 234.841 118.928 236.042 118.989 237.238C119.05 238.435 119.324 239.541 119.758 240.338L119.747 240.342Z" fill="#6C63FF"/>
<path opacity="0.5" d="M141.061 6.70399H139.739C139.864 6.71641 139.989 6.67584 140.107 6.58473C140.224 6.49362 140.332 6.35388 140.422 6.17395C140.513 5.99402 140.585 5.77765 140.635 5.53796C140.684 5.29827 140.71 5.04023 140.71 4.77948C140.71 4.51873 140.684 4.2607 140.635 4.021C140.585 3.78131 140.513 3.56494 140.422 3.38501C140.332 3.20508 140.224 3.06533 140.107 2.97422C139.989 2.88311 139.864 2.84255 139.739 2.85497H129.017C128.779 2.87857 128.555 3.09163 128.39 3.44996C128.226 3.80829 128.134 4.28438 128.134 4.77948C128.134 5.27457 128.226 5.75067 128.39 6.109C128.555 6.46733 128.779 6.68039 129.017 6.70399H130.339C130.101 6.72758 129.877 6.94065 129.713 7.29898C129.548 7.65731 129.457 8.1334 129.457 8.62849C129.457 9.12359 129.548 9.59968 129.713 9.95801C129.877 10.3163 130.101 10.5294 130.339 10.553H128.488C128.363 10.5406 128.238 10.5811 128.12 10.6722C128.003 10.7634 127.895 10.9031 127.805 11.083C127.714 11.263 127.642 11.4793 127.592 11.719C127.543 11.9587 127.517 12.2168 127.517 12.4775C127.517 12.7383 127.543 12.9963 127.592 13.236C127.642 13.4757 127.714 13.692 127.805 13.872C127.895 14.0519 128.003 14.1917 128.12 14.2828C128.238 14.3739 128.363 14.4144 128.488 14.402H139.202C139.327 14.4144 139.452 14.3739 139.57 14.2828C139.687 14.1917 139.795 14.0519 139.885 13.872C139.976 13.692 140.048 13.4757 140.098 13.236C140.147 12.9963 140.173 12.7383 140.173 12.4775C140.173 12.2168 140.147 11.9587 140.098 11.719C140.048 11.4793 139.976 11.263 139.885 11.083C139.795 10.9031 139.687 10.7634 139.57 10.6722C139.452 10.5811 139.327 10.5406 139.202 10.553H141.061C141.299 10.5294 141.523 10.3163 141.688 9.95801C141.852 9.59968 141.944 9.12359 141.944 8.62849C141.944 8.1334 141.852 7.65731 141.688 7.29898C141.523 6.94065 141.299 6.72758 141.061 6.70399Z" fill="#DEE3F3"/>
<path opacity="0.5" d="M79.1072 17.9314H78.1006C78.1964 17.9423 78.2922 17.9125 78.3822 17.8438C78.4722 17.7751 78.5545 17.669 78.6241 17.5319C78.6938 17.3948 78.7492 17.2296 78.7871 17.0465C78.825 16.8633 78.8446 16.6661 78.8446 16.4667C78.8446 16.2673 78.825 16.07 78.7871 15.8869C78.7492 15.7037 78.6938 15.5385 78.6241 15.4015C78.5545 15.2644 78.4722 15.1582 78.3822 15.0896C78.2922 15.0209 78.1964 14.9911 78.1006 15.0019H69.9473C69.7672 15.0224 69.5977 15.1857 69.4736 15.4581C69.3496 15.7306 69.2805 16.0915 69.2805 16.4667C69.2805 16.8419 69.3496 17.2028 69.4736 17.4752C69.5977 17.7477 69.7672 17.9109 69.9473 17.9314H70.9539C70.8581 17.9205 70.7623 17.9503 70.6723 18.019C70.5823 18.0877 70.5 18.1938 70.4303 18.3309C70.3607 18.468 70.3053 18.6331 70.2674 18.8163C70.2295 18.9994 70.2099 19.1967 70.2099 19.3961C70.2099 19.5955 70.2295 19.7928 70.2674 19.9759C70.3053 20.1591 70.3607 20.3243 70.4303 20.4613C70.5 20.5984 70.5823 20.7045 70.6723 20.7732C70.7623 20.8419 70.8581 20.8717 70.9539 20.8609H69.5451C69.4494 20.85 69.3536 20.8798 69.2636 20.9485C69.1736 21.0172 69.0913 21.1233 69.0216 21.2604C68.952 21.3974 68.8965 21.5626 68.8587 21.7458C68.8208 21.9289 68.8012 22.1262 68.8012 22.3256C68.8012 22.525 68.8208 22.7223 68.8587 22.9054C68.8965 23.0886 68.952 23.2537 69.0216 23.3908C69.0913 23.5279 69.1736 23.634 69.2636 23.7027C69.3536 23.7714 69.4494 23.8012 69.5451 23.7903H77.6984C77.7942 23.8012 77.89 23.7714 77.98 23.7027C78.07 23.634 78.1523 23.5279 78.222 23.3908C78.2916 23.2537 78.347 23.0886 78.3849 22.9054C78.4228 22.7223 78.4424 22.525 78.4424 22.3256C78.4424 22.1262 78.4228 21.9289 78.3849 21.7458C78.347 21.5626 78.2916 21.3974 78.222 21.2604C78.1523 21.1233 78.07 21.0172 77.98 20.9485C77.89 20.8798 77.7942 20.85 77.6984 20.8609H79.1072C79.2873 20.8404 79.4568 20.6771 79.5809 20.4047C79.7049 20.1322 79.774 19.7713 79.774 19.3961C79.774 19.0209 79.7049 18.66 79.5809 18.3876C79.4568 18.1151 79.2873 17.9519 79.1072 17.9314V17.9314Z" fill="#DEE3F3"/>
<path d="M10.6717 225.406C10.6717 225.406 14.3567 240.447 11.354 248.675C8.35121 256.903 11.6277 279.327 11.6277 279.327" stroke="#6C63FF" stroke-miterlimit="10"/>
<path d="M11.7709 220.703C11.7709 223.602 10.7475 225.958 10.7475 225.958C10.7475 225.958 9.72412 223.606 9.72412 220.703C9.72412 217.8 10.7475 215.448 10.7475 215.448C10.7475 215.448 11.7709 217.804 11.7709 220.703Z" fill="#6C63FF"/>
<path d="M12.5816 225.406C12.5816 225.406 8.89663 240.447 11.8994 248.675C14.9021 256.903 11.6256 279.327 11.6256 279.327" stroke="#6C63FF" stroke-miterlimit="10"/>
<path d="M11.4908 220.703C11.4908 223.602 12.5142 225.958 12.5142 225.958C12.5142 225.958 13.5376 223.606 13.5376 220.703C13.5376 217.8 12.5142 215.448 12.5142 215.448C12.5142 215.448 11.4908 217.804 11.4908 220.703Z" fill="#6C63FF"/>
<path opacity="0.1" d="M11.4908 220.703C11.4908 223.602 12.5142 225.958 12.5142 225.958C12.5142 225.958 13.5376 223.606 13.5376 220.703C13.5376 217.8 12.5142 215.448 12.5142 215.448C12.5142 215.448 11.4908 217.804 11.4908 220.703Z" fill="black"/>
<path d="M14.0872 225.406C14.0872 225.406 17.7722 240.447 14.7694 248.675C11.7667 256.903 15.0432 279.327 15.0432 279.327" stroke="#6C63FF" stroke-miterlimit="10"/>
<path d="M15.1758 220.703C15.1758 223.602 14.1525 225.958 14.1525 225.958C14.1525 225.958 13.1291 223.606 13.1291 220.703C13.1291 217.8 14.1525 215.448 14.1525 215.448C14.1525 215.448 15.1758 217.804 15.1758 220.703Z" fill="#6C63FF"/>
<path d="M14.6009 232.754C13.6344 234.842 12.112 235.061 12.112 235.061C12.112 235.061 12.1583 231.891 13.1248 229.807C14.0914 227.722 15.6138 227.499 15.6138 227.499C15.6138 227.499 15.5611 230.661 14.6009 232.754Z" fill="#6C63FF"/>
<path d="M14.6978 243.132C13.7313 245.22 12.2089 245.439 12.2089 245.439C12.2089 245.439 12.2552 242.269 13.2217 240.185C14.1882 238.1 15.7107 237.877 15.7107 237.877C15.7107 237.877 15.6643 241.038 14.6978 243.132Z" fill="#6C63FF"/>
<path d="M9.45462 248.837C10.3685 251.027 10.3369 254.197 10.3369 254.197C10.3369 254.197 8.82291 253.816 7.90903 251.626C6.99516 249.437 7.02674 246.267 7.02674 246.267C7.02674 246.267 8.54075 246.648 9.45462 248.837Z" fill="#6C63FF"/>
<path d="M10.2969 226.72C11.4592 228.322 11.8361 231.396 11.8361 231.396C11.8361 231.396 10.3285 231.874 9.1661 230.271C8.00375 228.668 7.62683 225.594 7.62683 225.594C7.62683 225.594 9.14083 225.108 10.2969 226.72Z" fill="#6C63FF"/>
<path opacity="0.1" d="M10.2969 226.72C11.4592 228.322 11.8361 231.396 11.8361 231.396C11.8361 231.396 10.3285 231.874 9.1661 230.271C8.00375 228.668 7.62683 225.594 7.62683 225.594C7.62683 225.594 9.14083 225.108 10.2969 226.72Z" fill="black"/>
<path d="M15.9929 225.406C15.9929 225.406 12.3079 240.447 15.3106 248.675C18.3134 256.903 15.0369 279.327 15.0369 279.327" stroke="#6C63FF" stroke-miterlimit="10"/>
<path d="M14.9021 220.703C14.9021 223.602 15.9255 225.958 15.9255 225.958C15.9255 225.958 16.9488 223.606 16.9488 220.703C16.9488 217.8 15.9255 215.448 15.9255 215.448C15.9255 215.448 14.9021 217.804 14.9021 220.703Z" fill="#6C63FF"/>
<path opacity="0.1" d="M14.9021 220.703C14.9021 223.602 15.9255 225.958 15.9255 225.958C15.9255 225.958 16.9488 223.606 16.9488 220.703C16.9488 217.8 15.9255 215.448 15.9255 215.448C15.9255 215.448 14.9021 217.804 14.9021 220.703Z" fill="black"/>
<path d="M15.1969 232.977C14.2177 235.044 14.144 238.232 14.144 238.232C14.144 238.232 15.6665 238.052 16.6456 235.985C17.6248 233.918 17.6985 230.731 17.6985 230.731C17.6985 230.731 16.176 230.91 15.1969 232.977Z" fill="#6C63FF"/>
<path opacity="0.1" d="M15.1969 232.977C14.2177 235.044 14.144 238.232 14.144 238.232C14.144 238.232 15.6665 238.052 16.6456 235.985C17.6248 233.918 17.6985 230.731 17.6985 230.731C17.6985 230.731 16.176 230.91 15.1969 232.977Z" fill="black"/>
<path d="M17.1152 247.344C16.136 249.411 16.0623 252.599 16.0623 252.599C16.0623 252.599 17.5847 252.419 18.5639 250.352C19.543 248.285 19.6167 245.098 19.6167 245.098C19.6167 245.098 18.088 245.277 17.1152 247.344Z" fill="#6C63FF"/>
<path d="M14.2977 244.187C14.2977 244.187 16.515 236.918 19.6294 236.743" stroke="#6C63FF" stroke-miterlimit="10"/>
<path d="M12.5647 239.795C12.5647 239.795 10.3474 232.526 7.23309 232.351" stroke="#6C63FF" stroke-miterlimit="10"/>
<path d="M12.2762 250.173C12.2762 250.173 14.4936 242.904 17.6079 242.729" stroke="#6C63FF" stroke-miterlimit="10"/>
<path d="M19.522 237.899C19.8395 237.899 20.0969 237.364 20.0969 236.703C20.0969 236.043 19.8395 235.508 19.522 235.508C19.2045 235.508 18.9471 236.043 18.9471 236.703C18.9471 237.364 19.2045 237.899 19.522 237.899Z" fill="#6C63FF"/>
<path d="M7.28781 233.608C7.6053 233.608 7.86267 233.072 7.86267 232.412C7.86267 231.752 7.6053 231.217 7.28781 231.217C6.97032 231.217 6.71295 231.752 6.71295 232.412C6.71295 233.072 6.97032 233.608 7.28781 233.608Z" fill="#6C63FF"/>
<path d="M13.9082 252.555C13.9082 252.555 11.6909 245.286 8.57654 245.111" stroke="#6C63FF" stroke-miterlimit="10"/>
<path d="M8.63132 246.376C8.9488 246.376 9.20617 245.841 9.20617 245.181C9.20617 244.521 8.9488 243.985 8.63132 243.985C8.31383 243.985 8.05646 244.521 8.05646 245.181C8.05646 245.841 8.31383 246.376 8.63132 246.376Z" fill="#6C63FF"/>
<path d="M17.6501 243.985C17.9675 243.985 18.2249 243.45 18.2249 242.79C18.2249 242.13 17.9675 241.595 17.6501 241.595C17.3326 241.595 17.0752 242.13 17.0752 242.79C17.0752 243.45 17.3326 243.985 17.6501 243.985Z" fill="#6C63FF"/>
<path d="M26.1697 270.574C26.1697 270.574 20.8254 268.349 19.3978 265.385C17.9701 262.42 11.5603 257.236 10.8465 260.94C10.1327 264.645 1.22552 277.243 7.28364 279.467C13.3418 281.692 21.5372 282.432 23.3186 280.947C25.1 279.463 26.1697 270.574 26.1697 270.574Z" fill="#A8A8A8"/>
<path opacity="0.2" d="M7.28364 278.088C13.3418 280.312 21.5372 281.052 23.3186 279.568C24.6747 278.438 25.618 273 25.9907 270.495L26.1697 270.574C26.1697 270.574 25.1 279.467 23.3186 280.947C21.5372 282.427 13.3418 281.687 7.28364 279.467C5.5359 278.824 5.03474 277.317 5.22426 275.412C5.37166 276.639 5.98231 277.611 7.28364 278.088Z" fill="black"/>
<path d="M188.425 228.813C188.425 228.813 190.19 233.629 187.61 240.854C185.031 248.08 182.904 254.214 183.765 258.733C183.765 258.733 187.656 245.277 190.823 245.089C193.99 244.901 191.91 236.9 188.425 228.813Z" fill="#6C63FF"/>
<path opacity="0.1" d="M188.425 228.813C188.579 229.277 188.7 229.784 188.785 230.319C191.876 237.868 193.521 244.914 190.552 245.093C187.785 245.26 184.466 255.546 183.67 258.147C183.696 258.347 183.728 258.545 183.765 258.738C183.765 258.738 187.656 245.282 190.823 245.093C193.99 244.905 191.91 236.9 188.425 228.813Z" fill="black"/>
<path d="M191.706 234.926C191.706 236.616 191.615 237.991 191.495 237.991C191.375 237.991 191.284 236.62 191.284 234.926C191.284 233.231 191.398 234.05 191.51 234.05C191.621 234.05 191.706 233.24 191.706 234.926Z" fill="#FFD037"/>
<path d="M192.832 236.944C192.118 237.754 191.497 238.258 191.445 238.035C191.392 237.811 191.925 237.006 192.638 236.2C193.352 235.394 193.07 235.981 193.125 236.2C193.18 236.419 193.544 236.134 192.832 236.944Z" fill="#FFD037"/>
<path d="M179.105 228.813C179.105 228.813 177.34 233.629 179.92 240.854C182.499 248.08 184.626 254.214 183.765 258.733C183.765 258.733 179.874 245.277 176.707 245.089C173.54 244.901 175.62 236.9 179.105 228.813Z" fill="#6C63FF"/>
<path opacity="0.1" d="M179.105 228.813C178.951 229.277 178.83 229.784 178.745 230.319C175.654 237.868 174.009 244.914 176.978 245.093C179.745 245.26 183.064 255.546 183.86 258.147C183.833 258.347 183.802 258.545 183.765 258.738C183.765 258.738 179.874 245.282 176.707 245.093C173.54 244.905 175.62 236.9 179.105 228.813Z" fill="black"/>
<path d="M175.824 234.926C175.824 236.616 175.915 237.991 176.035 237.991C176.155 237.991 176.246 236.62 176.246 234.926C176.246 233.231 176.132 234.05 176.02 234.05C175.909 234.05 175.824 233.24 175.824 234.926Z" fill="#FFD037"/>
<path d="M174.698 236.944C175.412 237.754 176.033 238.258 176.086 238.035C176.138 237.811 175.605 237.006 174.892 236.2C174.178 235.394 174.46 235.981 174.405 236.2C174.35 236.419 173.984 236.134 174.698 236.944Z" fill="#FFD037"/>
<path d="M176.387 258.103C176.387 258.103 181.32 257.788 182.807 255.585C184.294 253.382 190.387 250.768 190.764 254.271C191.141 257.774 198.179 271.835 192.609 271.927C187.039 272.019 179.667 270.123 178.183 268.244C176.698 266.366 176.387 258.103 176.387 258.103Z" fill="#A8A8A8"/>
<path opacity="0.2" d="M192.708 270.714C187.138 270.806 179.766 268.91 178.282 267.031C177.151 265.599 176.7 260.463 176.551 258.094H176.387C176.387 258.094 176.698 266.37 178.183 268.249C179.667 270.127 187.039 272.028 192.609 271.931C194.218 271.905 194.772 270.714 194.742 268.954C194.519 270.027 193.915 270.692 192.708 270.714Z" fill="black"/>
<path opacity="0.5" d="M37.4479 32.6838H36.1255C36.2508 32.6962 36.3759 32.6556 36.4934 32.5645C36.6109 32.4734 36.7183 32.3337 36.809 32.1537C36.8998 31.9738 36.972 31.7574 37.0214 31.5178C37.0707 31.2781 37.0962 31.02 37.0962 30.7593C37.0962 30.4985 37.0707 30.2405 37.0214 30.0008C36.972 29.7611 36.8998 29.5447 36.809 29.3648C36.7183 29.1849 36.6109 29.0451 36.4934 28.954C36.3759 28.8629 36.2508 28.8223 36.1255 28.8348H25.4117C25.1739 28.8584 24.9496 29.0714 24.7853 29.4298C24.621 29.7881 24.5293 30.2642 24.5293 30.7593C24.5293 31.2544 24.621 31.7305 24.7853 32.0888C24.9496 32.4471 25.1739 32.6602 25.4117 32.6838H26.7341C26.4963 32.7074 26.2719 32.9204 26.1077 33.2788C25.9434 33.6371 25.8517 34.1132 25.8517 34.6083C25.8517 35.1034 25.9434 35.5795 26.1077 35.9378C26.2719 36.2961 26.4963 36.5092 26.7341 36.5328H24.8831C24.6453 36.5564 24.421 36.7695 24.2567 37.1278C24.0924 37.4861 24.0008 37.9622 24.0008 38.4573C24.0008 38.9524 24.0924 39.4285 24.2567 39.7868C24.421 40.1452 24.6453 40.3582 24.8831 40.3818H35.597C35.7222 40.3942 35.8474 40.3537 35.9649 40.2626C36.0824 40.1715 36.1897 40.0317 36.2805 39.8518C36.3712 39.6718 36.4435 39.4555 36.4928 39.2158C36.5422 38.9761 36.5677 38.7181 36.5677 38.4573C36.5677 38.1966 36.5422 37.9385 36.4928 37.6988C36.4435 37.4591 36.3712 37.2428 36.2805 37.0628C36.1897 36.8829 36.0824 36.7432 35.9649 36.6521C35.8474 36.5609 35.7222 36.5204 35.597 36.5328H37.4479C37.6857 36.5092 37.91 36.2961 38.0743 35.9378C38.2386 35.5795 38.3303 35.1034 38.3303 34.6083C38.3303 34.1132 38.2386 33.6371 38.0743 33.2788C37.91 32.9204 37.6857 32.7074 37.4479 32.6838V32.6838Z" fill="#DEE3F3"/>
</g>
<defs>
<linearGradient id="paint0_linear" x1="96.9678" y1="238.105" x2="96.9678" y2="56.82" gradientUnits="userSpaceOnUse">
<stop stop-color="#808080" stop-opacity="0.25"/>
<stop offset="0.54" stop-color="#808080" stop-opacity="0.12"/>
<stop offset="1" stop-color="#808080" stop-opacity="0.1"/>
</linearGradient>
<linearGradient id="paint1_linear" x1="80.622" y1="207.279" x2="80.622" y2="207.259" gradientUnits="userSpaceOnUse">
<stop stop-color="#808080" stop-opacity="0.25"/>
<stop offset="0.54" stop-color="#808080" stop-opacity="0.12"/>
<stop offset="1" stop-color="#808080" stop-opacity="0.1"/>
</linearGradient>
<linearGradient id="paint2_linear" x1="13559.8" y1="88539.9" x2="13559.8" y2="39696.7" gradientUnits="userSpaceOnUse">
<stop stop-color="#808080" stop-opacity="0.25"/>
<stop offset="0.54" stop-color="#808080" stop-opacity="0.12"/>
<stop offset="1" stop-color="#808080" stop-opacity="0.1"/>
</linearGradient>
<linearGradient id="paint3_linear" x1="38197.9" y1="107328" x2="38197.9" y2="34788" gradientUnits="userSpaceOnUse">
<stop stop-color="#808080" stop-opacity="0.25"/>
<stop offset="0.54" stop-color="#808080" stop-opacity="0.12"/>
<stop offset="1" stop-color="#808080" stop-opacity="0.1"/>
</linearGradient>
<clipPath id="clip0">
<rect width="200" height="289.67" fill="white"/>
</clipPath>
</defs>
</svg>
